<svg width="39" height="40" viewBox="0 0 39 40" fill="none" xmlns="http://www.w3.org/2000/svg">
<path d="M17.7619 35.2857C17.8571 35.7302 18.0397 36.2222 18.3095 36.7619C18.5794 37.3016 18.8571 37.7619 19.1429 38.1429H2.85714C2.09524 38.1429 1.42857 37.8571 0.857143 37.2857C0.285714 36.7143 0 36.0476 0 35.2857V2.85714C0 2.09524 0.285714 1.42857 0.857143 0.857143C1.42857 0.285714 2.09524 0 2.85714 0H27.619C28.381 0 29.0476 0.285714 29.619 0.857143C30.1905 1.42857 30.4762 2.09524 30.4762 2.85714V19C30.0476 18.9365 29.5714 18.9048 29.0476 18.9048C28.5238 18.9048 28.0476 18.9365 27.619 19V2.85714H16.2857V16.0952L11.7143 13.2857L7.14286 16.0952V2.85714H2.85714V35.2857H17.7619ZM28.9524 40C26.381 40 24.2143 39.119 22.4524 37.3571C20.6905 35.5952 19.8095 33.4286 19.8095 30.8571C19.8095 28.2857 20.6905 26.119 22.4524 24.3571C24.2143 22.5952 26.381 21.7143 28.9524 21.7143C31.5238 21.7143 33.6905 22.5952 35.4524 24.3571C37.2143 26.119 38.0952 28.2857 38.0952 30.8571C38.0952 33.4286 37.2143 35.5952 35.4524 37.3571C33.6905 39.119 31.5238 40 28.9524 40ZM26.619 35.2381L33.4286 30.8571L26.619 26.4762V35.2381ZM17.7619 2.85714H2.85714H27.619H17H17.7619Z" fill="#C00005"/>
</svg>
