<svg width="70" height="70" viewBox="0 0 70 70" fill="none" xmlns="http://www.w3.org/2000/svg">
<path d="M5.83333 60.5694C9.72222 56.9398 14.1263 54.0069 19.0454 51.7708C23.9647 49.5347 29.2795 48.4167 34.9899 48.4167C40.7003 48.4167 46.0185 49.5347 50.9444 51.7708C55.8704 54.0069 60.2778 56.9398 64.1667 60.5694V5.83333H5.83333V60.5694ZM35.1944 40.7361C38.9537 40.7361 42.1296 39.4398 44.7222 36.8472C47.3148 34.2546 48.6111 31.0787 48.6111 27.3194C48.6111 23.5602 47.3148 20.3843 44.7222 17.7917C42.1296 15.1991 38.9537 13.9028 35.1944 13.9028C31.4352 13.9028 28.2593 15.1991 25.6667 17.7917C23.0741 20.3843 21.7778 23.5602 21.7778 27.3194C21.7778 31.0787 23.0741 34.2546 25.6667 36.8472C28.2593 39.4398 31.4352 40.7361 35.1944 40.7361ZM5.83333 70C4.27778 70 2.91667 69.4167 1.75 68.25C0.583333 67.0833 0 65.7222 0 64.1667V5.83333C0 4.27778 0.583333 2.91667 1.75 1.75C2.91667 0.583333 4.27778 0 5.83333 0H64.1667C65.7222 0 67.0833 0.583333 68.25 1.75C69.4167 2.91667 70 4.27778 70 5.83333V64.1667C70 65.7222 69.4167 67.0833 68.25 68.25C67.0833 69.4167 65.7222 70 64.1667 70H5.83333ZM11.1806 64.1667H58.8194V63.2917C55.3194 60.3102 51.5602 58.0579 47.5417 56.5347C43.5231 55.0116 39.3426 54.25 35 54.25C30.6574 54.25 26.4769 55.0116 22.4583 56.5347C18.4398 58.0579 14.6806 60.3102 11.1806 63.2917V64.1667ZM35.1944 34.9028C33.088 34.9028 31.2975 34.1655 29.8229 32.691C28.3484 31.2164 27.6111 29.4259 27.6111 27.3194C27.6111 25.213 28.3484 23.4225 29.8229 21.9479C31.2975 20.4734 33.088 19.7361 35.1944 19.7361C37.3009 19.7361 39.0914 20.4734 40.566 21.9479C42.0405 23.4225 42.7778 25.213 42.7778 27.3194C42.7778 29.4259 42.0405 31.2164 40.566 32.691C39.0914 34.1655 37.3009 34.9028 35.1944 34.9028Z" fill="black"/>
</svg>
