<svg width="50" height="25" viewBox="0 0 50 25" fill="none" xmlns="http://www.w3.org/2000/svg">
<path d="M0 25V22.2396C0 20.9005 0.720486 19.8105 2.16146 18.9696C3.60243 18.1287 5.49264 17.7083 7.83208 17.7083C8.25448 17.7083 8.66064 17.717 9.05057 17.7344C9.44047 17.7517 9.82639 17.7891 10.2083 17.8465C9.93056 18.4488 9.72222 19.0593 9.58333 19.678C9.44444 20.2966 9.375 20.9422 9.375 21.6146V25H0ZM12.5 25V21.6146C12.5 20.5035 12.8038 19.4878 13.4115 18.5677C14.0191 17.6476 14.8785 16.8403 15.9896 16.1458C17.1007 15.4514 18.4288 14.9306 19.974 14.5833C21.5191 14.2361 23.1944 14.0625 25 14.0625C26.8403 14.0625 28.533 14.2361 30.0781 14.5833C31.6233 14.9306 32.9514 15.4514 34.0625 16.1458C35.1736 16.8403 36.0243 17.6476 36.6146 18.5677C37.2049 19.4878 37.5 20.5035 37.5 21.6146V25H12.5ZM40.625 25V21.6146C40.625 20.925 40.5642 20.2751 40.4427 19.6651C40.3212 19.055 40.1215 18.4501 39.8438 17.8504C40.2257 17.7904 40.6106 17.7517 40.9985 17.7344C41.3864 17.717 41.7827 17.7083 42.1875 17.7083C44.5312 17.7083 46.4193 18.121 47.8516 18.9462C49.2839 19.7715 50 20.8693 50 22.2396V25H40.625ZM15.625 21.875H34.375V21.5625C34.375 20.2778 33.4983 19.2274 31.7448 18.4115C29.9913 17.5955 27.7431 17.1875 25 17.1875C22.2569 17.1875 20.0087 17.5955 18.2552 18.4115C16.5017 19.2274 15.625 20.2951 15.625 21.6146V21.875ZM7.78995 16.1458C6.79804 16.1458 5.94618 15.7889 5.23438 15.0749C4.52257 14.3609 4.16667 13.5026 4.16667 12.5C4.16667 11.4931 4.52365 10.6337 5.2376 9.92188C5.9516 9.21007 6.8099 8.85417 7.8125 8.85417C8.81944 8.85417 9.67882 9.21007 10.3906 9.92188C11.1024 10.6337 11.4583 11.5006 11.4583 12.5226C11.4583 13.5145 11.1024 14.3663 10.3906 15.0781C9.67882 15.7899 8.81193 16.1458 7.78995 16.1458ZM42.1649 16.1458C41.173 16.1458 40.3212 15.7889 39.6094 15.0749C38.8976 14.3609 38.5417 13.5026 38.5417 12.5C38.5417 11.4931 38.8986 10.6337 39.6126 9.92188C40.3266 9.21007 41.1849 8.85417 42.1875 8.85417C43.1944 8.85417 44.0538 9.21007 44.7656 9.92188C45.4774 10.6337 45.8333 11.5006 45.8333 12.5226C45.8333 13.5145 45.4774 14.3663 44.7656 15.0781C44.0538 15.7899 43.1869 16.1458 42.1649 16.1458ZM25 12.5C23.2639 12.5 21.7882 11.8924 20.5729 10.6771C19.3576 9.46181 18.75 7.98611 18.75 6.25C18.75 4.47917 19.3576 2.99479 20.5729 1.79688C21.7882 0.598958 23.2639 0 25 0C26.7708 0 28.2552 0.598958 29.4531 1.79688C30.651 2.99479 31.25 4.47917 31.25 6.25C31.25 7.98611 30.651 9.46181 29.4531 10.6771C28.2552 11.8924 26.7708 12.5 25 12.5ZM25.0183 9.375C25.9089 9.375 26.6493 9.07377 27.2396 8.4713C27.8299 7.86884 28.125 7.12231 28.125 6.23172C28.125 5.34113 27.8273 4.60069 27.2318 4.01042C26.6364 3.42014 25.8985 3.125 25.0183 3.125C24.138 3.125 23.3941 3.42272 22.7865 4.01818C22.1788 4.61363 21.875 5.35147 21.875 6.23172C21.875 7.11196 22.1762 7.8559 22.7787 8.46354C23.3812 9.07118 24.1277 9.375 25.0183 9.375Z" fill="black"/>
</svg>
