<svg width="70" height="38" viewBox="0 0 70 38" fill="none" xmlns="http://www.w3.org/2000/svg">
<path d="M3.18182 38V33.1809H66.8182V38H3.18182ZM6.20455 17.9335L3.02273 16.1954L6.20455 10.8233H0V7.26819H6.20455L3.02273 1.89605L6.20455 0.158004L9.22727 5.45114L12.25 0.158004L15.4318 1.89605L12.25 7.26819H18.4545V10.8233H12.25L15.4318 16.1954L12.25 17.9335L9.22727 12.6403L6.20455 17.9335ZM31.9773 17.9335L28.7955 16.0374L31.9773 10.6653H25.7727V7.11019H31.9773L28.7955 1.73805L31.9773 0L35 5.29314L38.0227 0L41.2045 1.73805L38.0227 7.11019H44.2273V10.6653H38.0227L41.2045 16.0374L38.0227 17.9335L35 12.6403L31.9773 17.9335ZM57.75 17.9335L54.5682 16.0374L57.75 10.6653H51.5455V7.11019H57.75L54.5682 1.73805L57.75 0L60.7727 5.29314L63.7955 0L66.9773 1.73805L63.7955 7.11019H70V10.6653H63.7955L66.9773 16.0374L63.7955 17.9335L60.7727 12.6403L57.75 17.9335Z" fill="black"/>
</svg>
