<svg width="333" height="145" viewBox="0 0 333 145" fill="none" xmlns="http://www.w3.org/2000/svg">
<g filter="url(#filter0_d_20_201)">
<rect x="4" y="39" width="325" height="77" rx="15" fill="#D9D9D9"/>
<path d="M226.244 43.8958L249.415 24.2164L249.495 24.0279L234.668 17.7759L237.608 10.8023L261.482 20.8692L258.541 27.8427L235.228 47.6841L226.244 43.8958Z" fill="#E45600"/>
<path d="M269.505 33.7239L269.871 42.6836L276.73 36.7705L285.337 40.3999L273.78 49.7336L275.479 64.657L266.934 61.0541L266.083 51.6676L258.893 57.6632L250.223 54.0074L262.157 44.8326L260.836 30.0681L269.505 33.7239Z" fill="#4D5D09"/>
<path d="M279.989 60.6394L282.85 53.8543L304.375 38.9564L310.532 41.5526L306.717 50.5993L303.199 49.1158L291.563 57.2324L291.457 57.4837L310.556 65.5372L307.695 72.3222L279.989 60.6394ZM293.513 72.2618L296.507 65.1626L297.94 62.2893L307.265 40.175L315.433 43.6189L301.869 75.7852L293.513 72.2618Z" fill="#C00005"/>
<path d="M135.231 95.3793L152.465 104.524V122.55L135.231 113.669V95.3793Z" fill="#009389"/>
<path d="M152.817 103.645L169.348 94.7639V113.405L152.817 123.078V103.645Z" fill="#009389"/>
<path d="M136.99 94.7639L152.466 85.8828L168.469 94.7639L152.466 103.645L136.99 94.7639Z" fill="#009389"/>
<path d="M137.107 112.875L151.088 120.942V104.964L137.107 96.8965V112.875ZM154.195 120.942L168.176 112.875V96.8448L154.195 104.964V120.942ZM138.816 94.311L152.641 102.326L166.415 94.311L152.641 86.3474L138.816 94.311ZM134 114.685V95.2935C134 94.7419 134.138 94.2248 134.414 93.7422C134.69 93.2595 135.07 92.8803 135.553 92.6045L151.088 83.6584C151.571 83.3826 152.089 83.2448 152.641 83.2448C153.194 83.2448 153.712 83.3826 154.195 83.6584L169.729 92.6045C170.213 92.8803 170.592 93.2595 170.869 93.7422C171.145 94.2248 171.283 94.7419 171.283 95.2935V112.875C171.283 113.427 171.145 113.944 170.869 114.427C170.592 114.909 170.213 115.289 169.729 115.564L154.195 124.51C153.712 124.786 153.194 124.924 152.641 124.924C152.089 124.924 151.571 124.786 151.088 124.51L134 114.685Z" fill="#07B4A9"/>
<path d="M145.43 105.498L145.278 113.497L143.106 113.455L143.22 107.456L143.173 107.455L141.404 108.469L141.439 106.626L143.43 105.46L145.43 105.498Z" fill="white"/>
<path d="M173.438 134.867L172.741 115.369L188.352 106.356L189.278 125.722L173.438 134.867Z" fill="#394601"/>
<path d="M171.803 115.504L155.847 105.628L171.99 96.3075L188.633 105.788L171.803 115.504Z" fill="#394601"/>
<path d="M172.026 133.651L156.597 124.689L156.286 106.389L171.979 115.808L172.026 133.651Z" fill="#394601"/>
<path d="M187.652 124.494L187.648 108.353L173.81 116.342L173.814 132.483L187.652 124.494ZM186.095 105.662L172.118 97.5875L158.235 105.603L172.257 113.651L186.095 105.662ZM170.721 132.296L170.749 116.315L156.921 108.394L156.911 124.305L170.721 132.296ZM190.773 126.28L173.979 135.976C173.502 136.251 172.985 136.39 172.429 136.393C171.873 136.395 171.354 136.255 170.874 135.975L155.359 126.995C154.879 126.714 154.5 126.334 154.224 125.856C153.948 125.378 153.809 124.86 153.806 124.304L153.786 106.378C153.783 105.821 153.922 105.303 154.202 104.822C154.482 104.342 154.86 103.964 155.338 103.688L170.564 94.8969C171.042 94.6211 171.559 94.4821 172.115 94.4799C172.671 94.4778 173.189 94.617 173.67 94.8977L189.185 103.878C189.665 104.159 190.043 104.538 190.32 105.016C190.596 105.495 190.735 106.012 190.738 106.569L190.773 126.28Z" fill="#4D5D09"/>
<path d="M160.546 123.953V122.39L163.53 119.921C163.728 119.757 163.897 119.604 164.038 119.46C164.181 119.315 164.291 119.165 164.366 119.011C164.444 118.858 164.483 118.687 164.483 118.5C164.483 118.294 164.439 118.118 164.351 117.972C164.265 117.826 164.145 117.714 163.991 117.636C163.838 117.556 163.66 117.515 163.46 117.515C163.259 117.515 163.082 117.556 162.929 117.636C162.778 117.717 162.66 117.835 162.577 117.992C162.494 118.148 162.452 118.338 162.452 118.562H160.39C160.39 118 160.516 117.515 160.769 117.109C161.021 116.703 161.378 116.39 161.839 116.171C162.3 115.953 162.84 115.843 163.46 115.843C164.101 115.843 164.655 115.946 165.124 116.152C165.595 116.355 165.959 116.641 166.214 117.011C166.472 117.381 166.601 117.815 166.601 118.312C166.601 118.619 166.537 118.925 166.409 119.23C166.282 119.532 166.052 119.867 165.722 120.234C165.391 120.601 164.921 121.039 164.312 121.546L163.562 122.171V122.218H166.687V123.953H160.546Z" fill="white"/>
<path d="M148.948 81.1345L166.183 90.2794V108.305L148.948 99.4242V81.1345Z" fill="#890003"/>
<path d="M166.535 89.4L183.066 80.5189V99.1603L166.535 108.833V89.4Z" fill="#890003"/>
<path d="M150.707 80.519L166.183 71.6379L182.186 80.519L166.183 89.4L150.707 80.519Z" fill="#890003"/>
<path d="M150.824 98.6306L164.805 106.698V90.7188L150.824 82.6518V98.6306ZM167.912 106.698L181.893 98.6306V82.6001L167.912 90.7188V106.698ZM152.533 80.0662L166.359 88.0815L180.133 80.0662L166.359 72.1027L152.533 80.0662ZM147.717 100.44V81.0487C147.717 80.4972 147.855 79.98 148.132 79.4974C148.408 79.0148 148.787 78.6355 149.271 78.3598L164.805 69.4137C165.289 69.1379 165.806 69 166.359 69C166.911 69 167.429 69.1379 167.912 69.4137L183.447 78.3598C183.93 78.6355 184.31 79.0148 184.586 79.4974C184.862 79.98 185 80.4972 185 81.0487V98.6306C185 99.1822 184.862 99.6993 184.586 100.182C184.31 100.665 183.93 101.044 183.447 101.32L167.912 110.266C167.429 110.541 166.911 110.679 166.359 110.679C165.806 110.679 165.289 110.541 164.805 110.266L147.717 100.44Z" fill="#C00005"/>
<path d="M156.965 98.8182C156.335 98.8062 155.777 98.6875 155.292 98.4621C154.809 98.2342 154.432 97.9262 154.161 97.5381C153.89 97.1501 153.757 96.7074 153.764 96.21L155.951 96.2516C155.951 96.4052 155.995 96.5441 156.084 96.6682C156.176 96.7898 156.301 96.8859 156.462 96.9567C156.622 97.0275 156.806 97.0648 157.014 97.0688C157.215 97.0726 157.392 97.0408 157.547 96.9734C157.702 96.9034 157.824 96.8055 157.912 96.6795C158.001 96.5536 158.045 96.4086 158.046 96.2445C158.051 96.0831 158.005 95.939 157.905 95.8121C157.809 95.6852 157.671 95.5849 157.493 95.5112C157.315 95.4375 157.108 95.3984 156.874 95.3939L156.062 95.3785L156.09 93.8788L156.903 93.8942C157.119 93.8983 157.309 93.8668 157.475 93.7996C157.643 93.7325 157.774 93.6373 157.867 93.514C157.963 93.3908 158.011 93.2485 158.012 93.087C158.017 92.9308 157.982 92.7921 157.906 92.6709C157.831 92.5496 157.723 92.4538 157.584 92.3834C157.447 92.3131 157.288 92.2762 157.105 92.2728C156.907 92.269 156.73 92.3008 156.572 92.3681C156.417 92.4355 156.294 92.5309 156.203 92.6542C156.112 92.7774 156.064 92.9198 156.059 93.0812L153.981 93.0417C153.993 92.5522 154.135 92.1226 154.408 91.7527C154.683 91.3829 155.056 91.0956 155.526 90.891C155.996 90.6863 156.533 90.5897 157.137 90.6012C157.728 90.6124 158.248 90.7226 158.697 90.9317C159.149 91.1408 159.499 91.4236 159.748 91.7799C159.999 92.1337 160.119 92.5358 160.108 92.9862C160.105 93.4341 159.944 93.7983 159.626 94.0788C159.311 94.3593 158.914 94.5211 158.437 94.5641L158.436 94.6266C159.08 94.7092 159.562 94.9163 159.881 95.2479C160.201 95.577 160.353 95.9862 160.339 96.4756C160.332 96.9443 160.184 97.3569 159.893 97.7134C159.605 98.07 159.208 98.3464 158.701 98.5425C158.198 98.7387 157.619 98.8306 156.965 98.8182Z" fill="white"/>
<path d="M34.2086 75.1969L38.1348 77.0372L41.3737 70.1271L48.2838 73.366L50.1241 69.4399L43.214 66.2009L46.4529 59.2908L42.5267 57.4505L39.2878 64.3606L32.3777 61.1217L30.5374 65.0479L37.4475 68.2868L34.2086 75.1969ZM52.3794 80.3619L68.1627 87.7599L69.9662 83.9122L54.1829 76.5142L52.3794 80.3619ZM56.3176 71.9598L72.1009 79.3578L73.9412 75.4316L58.1579 68.0336L56.3176 71.9598ZM65.2224 60.5223L72.2575 57.9775L74.8023 65.0126L78.9542 63.5108L76.4094 56.4756L83.4445 53.9309L81.9427 49.779L74.9075 52.3238L72.3628 45.2887L68.2109 46.7905L70.7557 53.8256L63.7205 56.3704L65.2224 60.5223ZM42.3522 42.9066L57.7429 50.1206L59.5832 46.1944L44.1925 38.9804L42.3522 42.9066ZM19.7113 78.7455C18.455 78.1566 17.5765 77.1701 17.0759 75.7862C16.5752 74.4022 16.6194 73.0821 17.2083 71.8257L39.2919 24.7114C39.8808 23.455 40.8672 22.5765 42.2512 22.0759C43.6351 21.5753 44.9553 21.6195 46.2117 22.2084L93.3259 44.292C94.5823 44.8809 95.4608 45.8673 95.9614 47.2512C96.462 48.6352 96.4179 49.9554 95.829 51.2117L73.7454 98.326C73.1565 99.5824 72.1701 100.461 70.7861 100.961C69.4021 101.462 68.082 101.418 66.8256 100.829L19.7113 78.7455ZM21.9197 74.034L69.034 96.1176L91.1176 49.0034L44.0033 26.9198L21.9197 74.034Z" fill="#07B4A9"/>
<path d="M78.9859 88.588L79.7139 84.668C81.5246 84.668 83.1019 84.6213 84.4459 84.528C85.7899 84.416 86.9006 84.2573 87.7779 84.052C88.6739 83.828 89.3366 83.5387 89.7659 83.184C90.2139 82.8293 90.4379 82.4 90.4379 81.896C90.4379 81.224 90.3259 80.4213 90.1019 79.488C89.8779 78.536 89.5886 77.5747 89.2339 76.604L92.9019 75.54C93.1446 76.1747 93.3779 76.8747 93.6019 77.64C93.8259 78.3867 94.0033 79.1427 94.1339 79.908C94.2833 80.6547 94.3579 81.3547 94.3579 82.008C94.3579 83.1653 94.1059 84.164 93.6019 85.004C93.0979 85.8253 92.2579 86.5067 91.0819 87.048C89.9246 87.5707 88.3566 87.9533 86.3779 88.196C84.3993 88.4573 81.9353 88.588 78.9859 88.588ZM78.9579 88.588C76.9419 88.588 75.2339 88.4293 73.8339 88.112C72.4526 87.8133 71.3233 87.384 70.4459 86.824C69.5873 86.2453 68.9619 85.5733 68.5699 84.808C68.1779 84.0427 67.9819 83.2027 67.9819 82.288C67.9819 81.6907 68.0286 81.0933 68.1219 80.496C68.2339 79.88 68.3646 79.2827 68.5139 78.704C68.6819 78.1253 68.8313 77.6027 68.9619 77.136L72.4619 77.948C72.3873 78.284 72.3033 78.648 72.2099 79.04C72.1166 79.432 72.0419 79.8147 71.9859 80.188C71.9299 80.5427 71.9019 80.8693 71.9019 81.168C71.9019 81.8587 72.1446 82.4747 72.6299 83.016C73.1339 83.5387 73.9553 83.9493 75.0939 84.248C76.2326 84.528 77.7633 84.668 79.6859 84.668L80.2459 87.692L78.9579 88.588ZM81.1139 95.14C80.5726 95.14 80.1059 94.9533 79.7139 94.58C79.3406 94.2067 79.1539 93.7493 79.1539 93.208C79.1539 92.6667 79.3406 92.1907 79.7139 91.78C80.1059 91.388 80.5726 91.192 81.1139 91.192C81.6553 91.192 82.1126 91.388 82.4859 91.78C82.8779 92.1907 83.0739 92.6667 83.0739 93.208C83.0739 93.7493 82.8779 94.2067 82.4859 94.58C82.1126 94.9533 81.6553 95.14 81.1139 95.14ZM104.646 88.14C102.91 88.14 101.566 87.9627 100.614 87.608C99.6802 87.2533 99.0269 86.7027 98.6535 85.956C98.2802 85.1907 98.0655 84.2293 98.0095 83.072L97.4215 67.504H101.342L101.93 81.196C101.967 82.0547 102.06 82.6987 102.21 83.128C102.359 83.5573 102.639 83.8467 103.05 83.996C103.479 84.1453 104.104 84.22 104.926 84.22C105.635 84.22 106.139 84.4067 106.438 84.78C106.755 85.1347 106.914 85.5827 106.914 86.124C106.914 86.7027 106.718 87.188 106.326 87.58C105.934 87.9533 105.374 88.14 104.646 88.14ZM104.684 88.14L104.964 84.22C105.58 84.22 106.084 84.1733 106.476 84.08C106.868 83.968 107.185 83.7347 107.428 83.38C107.689 83.0067 107.913 82.456 108.1 81.728C108.305 80.9813 108.529 79.9733 108.772 78.704L112.412 79.376C112.337 79.7867 112.234 80.3 112.104 80.916C111.992 81.532 111.936 82.064 111.936 82.512C111.936 82.8667 112.001 83.1747 112.132 83.436C112.281 83.6787 112.524 83.8747 112.86 84.024C113.214 84.1547 113.7 84.22 114.316 84.22C114.801 84.22 115.212 84.1733 115.548 84.08C115.902 83.968 116.201 83.7347 116.444 83.38C116.705 83.0067 116.929 82.4373 117.116 81.672C117.321 80.888 117.517 79.8333 117.704 78.508L121.4 79.096C121.325 79.5253 121.25 79.9827 121.176 80.468C121.101 80.9533 121.036 81.4013 120.98 81.812C120.924 82.2227 120.896 82.5587 120.896 82.82C120.896 83.0627 120.961 83.296 121.092 83.52C121.241 83.7253 121.502 83.8933 121.876 84.024C122.268 84.1547 122.809 84.22 123.5 84.22C124.34 84.22 124.956 84.0427 125.348 83.688C125.758 83.3147 125.964 82.7547 125.964 82.008C125.964 81.5787 125.954 81.1213 125.936 80.636C125.917 80.132 125.88 79.572 125.824 78.956C125.786 78.3213 125.712 77.6027 125.6 76.8L129.212 76.52C129.342 78.1253 129.492 79.432 129.66 80.44C129.828 81.448 130.052 82.232 130.332 82.792C130.63 83.3333 131.022 83.7067 131.508 83.912C132.012 84.1173 132.665 84.22 133.468 84.22C134.177 84.22 134.681 84.4067 134.98 84.78C135.297 85.1347 135.456 85.5827 135.456 86.124C135.456 86.7027 135.26 87.188 134.868 87.58C134.494 87.9533 133.934 88.14 133.188 88.14C132.684 88.14 132.161 88.0933 131.62 88C131.078 87.9253 130.556 87.7667 130.052 87.524C129.548 87.2627 129.1 86.8893 128.708 86.404C128.316 85.9187 128.008 85.2747 127.784 84.472L128.288 84.64C128.026 85.5733 127.672 86.292 127.224 86.796C126.776 87.3 126.225 87.6547 125.572 87.86C124.918 88.0467 124.134 88.14 123.22 88.14C122.38 88.14 121.633 88.028 120.98 87.804C120.326 87.58 119.804 87.216 119.412 86.712C119.038 86.1893 118.842 85.4893 118.824 84.612H119.776C119.402 85.6573 118.973 86.432 118.488 86.936C118.002 87.44 117.414 87.7667 116.724 87.916C116.033 88.0653 115.165 88.14 114.12 88.14C113.485 88.14 112.86 88.0747 112.244 87.944C111.628 87.7947 111.077 87.468 110.592 86.964C110.106 86.4413 109.752 85.62 109.528 84.5L111.04 84.444C110.648 85.5453 110.134 86.3573 109.5 86.88C108.884 87.4027 108.174 87.748 107.372 87.916C106.569 88.0653 105.673 88.14 104.684 88.14ZM151.515 88.14C150.656 88.14 149.854 88.0747 149.107 87.944C148.379 87.8133 147.707 87.5893 147.091 87.272C146.475 86.936 145.924 86.4787 145.439 85.9C144.972 85.3213 144.58 84.5933 144.263 83.716L146.475 81.952C146.811 82.5493 147.222 83.016 147.707 83.352C148.192 83.6693 148.771 83.8933 149.443 84.024C150.115 84.1547 150.899 84.22 151.795 84.22C152.504 84.22 153.008 84.4067 153.307 84.78C153.606 85.1347 153.755 85.5827 153.755 86.124C153.755 86.7027 153.559 87.188 153.167 87.58C152.794 87.9533 152.243 88.14 151.515 88.14ZM133.203 88.14L133.483 84.22C134.491 84.22 135.49 84.164 136.479 84.052C137.468 83.94 138.43 83.772 139.363 83.548C140.296 83.324 141.183 83.0347 142.023 82.68C142.882 82.3253 143.684 81.896 144.431 81.392C143.871 81.056 143.264 80.7667 142.611 80.524C141.958 80.2813 141.258 80.104 140.511 79.992C139.783 79.8613 139.008 79.796 138.187 79.796C137.888 79.796 137.571 79.8053 137.235 79.824C136.918 79.8427 136.591 79.88 136.255 79.936C135.919 79.9733 135.583 80.0293 135.247 80.104L134.687 76.268C135.228 76.1187 135.798 76.016 136.395 75.96C137.011 75.8853 137.552 75.848 138.019 75.848C139.027 75.848 139.951 75.96 140.791 76.184C141.65 76.408 142.434 76.688 143.143 77.024C143.871 77.36 144.543 77.696 145.159 78.032C145.794 78.368 146.391 78.648 146.951 78.872C147.53 79.096 148.09 79.208 148.631 79.208H149.667L150.115 82.932C149.312 82.9693 148.556 83.128 147.847 83.408C147.156 83.6693 146.466 84.0053 145.775 84.416C145.103 84.808 144.375 85.2187 143.591 85.648C142.826 86.0773 141.958 86.4787 140.987 86.852C140.016 87.2253 138.896 87.5333 137.627 87.776C136.358 88.0187 134.883 88.14 133.203 88.14ZM151.523 88.14L151.803 84.22C152.662 84.22 153.278 84.136 153.651 83.968C154.025 83.7813 154.249 83.4453 154.323 82.96C154.398 82.456 154.417 81.728 154.379 80.776L153.875 67.504H157.823L158.383 81.056C158.421 82.1387 158.374 83.1187 158.243 83.996C158.131 84.8547 157.842 85.592 157.375 86.208C156.927 86.824 156.227 87.3 155.275 87.636C154.342 87.972 153.091 88.14 151.523 88.14ZM162.076 88L161.488 67.504H165.408L165.996 88H162.076ZM169.088 94.44L168.276 90.52C169.602 90.352 170.759 90.1467 171.748 89.904C172.738 89.68 173.568 89.3627 174.24 88.952C174.912 88.5413 175.416 87.9813 175.752 87.272C176.088 86.544 176.256 85.6107 176.256 84.472C176.256 84.0613 176.219 83.6507 176.144 83.24C176.07 82.8107 175.958 82.4187 175.808 82.064C175.659 81.7093 175.463 81.42 175.22 81.196C174.996 80.972 174.726 80.86 174.408 80.86C174.072 80.86 173.774 80.9813 173.512 81.224C173.251 81.448 173.046 81.7373 172.896 82.092C172.747 82.428 172.672 82.7733 172.672 83.128C172.672 83.3893 172.738 83.6133 172.868 83.8C172.999 83.968 173.195 84.0987 173.456 84.192C173.718 84.2667 174.044 84.304 174.436 84.304C174.884 84.304 175.342 84.2573 175.808 84.164C176.294 84.052 176.732 83.9027 177.124 83.716L177.236 86.768C176.788 87.1227 176.275 87.44 175.696 87.72C175.118 87.9813 174.418 88.112 173.596 88.112C172.924 88.112 172.299 88.0373 171.72 87.888C171.142 87.72 170.628 87.468 170.18 87.132C169.751 86.796 169.415 86.3667 169.172 85.844C168.93 85.3027 168.808 84.6587 168.808 83.912C168.808 82.9973 168.958 82.1107 169.256 81.252C169.555 80.3933 169.966 79.628 170.488 78.956C171.03 78.2653 171.646 77.724 172.336 77.332C173.046 76.9213 173.792 76.716 174.576 76.716C175.51 76.716 176.322 76.9493 177.012 77.416C177.722 77.8827 178.31 78.4987 178.776 79.264C179.243 80.0107 179.598 80.8227 179.84 81.7C180.083 82.5773 180.204 83.4173 180.204 84.22C180.204 86.3293 179.756 88.1213 178.86 89.596C177.964 91.0707 176.686 92.2093 175.024 93.012C173.363 93.8333 171.384 94.3093 169.088 94.44ZM187.996 86.88L189.368 83.324C190.058 83.6227 190.721 83.8467 191.356 83.996C191.99 84.1453 192.625 84.22 193.26 84.22C193.913 84.22 194.454 84.164 194.884 84.052C195.332 83.9213 195.668 83.7347 195.892 83.492C196.116 83.2493 196.228 82.96 196.228 82.624C196.228 82.3067 196.125 81.868 195.92 81.308C195.733 80.748 195.388 80.02 194.884 79.124C194.38 78.2093 193.642 77.08 192.672 75.736L196.004 73.524C196.9 74.7933 197.674 76.0347 198.328 77.248C198.981 78.4427 199.485 79.5627 199.84 80.608C200.213 81.6347 200.4 82.54 200.4 83.324C200.4 84.2947 200.138 85.144 199.616 85.872C199.112 86.5813 198.356 87.1413 197.348 87.552C196.358 87.9627 195.136 88.168 193.68 88.168C193.138 88.168 192.532 88.1213 191.86 88.028C191.188 87.9347 190.506 87.7947 189.816 87.608C189.144 87.4213 188.537 87.1787 187.996 86.88ZM203.72 88L203.132 67.504H207.052L207.64 88H203.72ZM215.241 84.22C216.081 84.22 216.725 84.1453 217.173 83.996C217.621 83.8467 217.929 83.6507 218.097 83.408C218.265 83.1653 218.349 82.904 218.349 82.624C218.349 82.176 218.218 81.6533 217.957 81.056C217.714 80.4587 217.406 79.8333 217.033 79.18C216.659 78.5267 216.267 77.9013 215.857 77.304C215.465 76.7067 215.11 76.184 214.793 75.736L218.125 73.524C218.927 74.6067 219.618 75.68 220.197 76.744C220.775 77.7893 221.242 78.76 221.597 79.656C221.97 80.552 222.231 81.3173 222.381 81.952C222.53 82.5493 222.754 83.016 223.053 83.352C223.37 83.6693 223.734 83.8933 224.145 84.024C224.555 84.1547 224.966 84.22 225.377 84.22C226.086 84.22 226.59 84.4067 226.889 84.78C227.206 85.1347 227.365 85.5827 227.365 86.124C227.365 86.7027 227.169 87.188 226.777 87.58C226.403 87.9533 225.843 88.14 225.097 88.14C224.275 88.14 223.557 88.028 222.941 87.804C222.325 87.58 221.802 87.2253 221.373 86.74C220.943 86.2547 220.579 85.6387 220.281 84.892L221.989 85.256C221.839 85.7787 221.494 86.264 220.953 86.712C220.43 87.1413 219.73 87.496 218.853 87.776C217.994 88.0373 216.977 88.168 215.801 88.168C215.241 88.168 214.615 88.1213 213.925 88.028C213.253 87.9347 212.581 87.7947 211.909 87.608C211.255 87.4213 210.658 87.1787 210.117 86.88L211.489 83.324C212.179 83.6227 212.842 83.8467 213.477 83.996C214.13 84.1453 214.718 84.22 215.241 84.22ZM225.133 88.14L225.413 84.22C226.29 84.22 226.962 84.2107 227.429 84.192C227.914 84.1733 228.278 84.1547 228.521 84.136C228.763 84.0987 228.969 84.0707 229.137 84.052C228.95 83.8653 228.707 83.5947 228.409 83.24C228.11 82.8853 227.839 82.428 227.597 81.868C227.373 81.308 227.261 80.636 227.261 79.852C227.261 78.7133 227.55 77.7147 228.129 76.856C228.726 75.9973 229.529 75.3253 230.537 74.84C231.545 74.3547 232.674 74.112 233.925 74.112C234.522 74.112 235.073 74.1493 235.577 74.224C236.099 74.2987 236.622 74.4107 237.145 74.56L236.529 78.284C236.155 78.1907 235.763 78.116 235.353 78.06C234.942 78.004 234.578 77.976 234.261 77.976C233.645 77.976 233.103 78.0787 232.637 78.284C232.189 78.4707 231.834 78.7413 231.573 79.096C231.33 79.432 231.209 79.8427 231.209 80.328C231.209 80.6453 231.265 80.944 231.377 81.224C231.507 81.504 231.666 81.756 231.853 81.98C232.039 82.204 232.245 82.4 232.469 82.568C232.693 82.736 232.907 82.876 233.113 82.988C233.337 83.0813 233.523 83.1467 233.673 83.184C234.139 83.0533 234.541 82.9413 234.877 82.848C235.231 82.736 235.567 82.6333 235.885 82.54C236.221 82.428 236.585 82.288 236.977 82.12C237.369 81.952 237.854 81.7467 238.433 81.504L239.693 85.2C238.125 85.9653 236.594 86.5627 235.101 86.992C233.607 87.4213 232.058 87.72 230.453 87.888C228.847 88.056 227.074 88.14 225.133 88.14ZM251.751 72.992C251.751 72.376 251.713 71.76 251.639 71.144C251.583 70.528 251.508 69.9493 251.415 69.408C251.321 68.848 251.237 68.3627 251.163 67.952L255.083 67.392C255.157 67.7653 255.232 68.26 255.307 68.876C255.381 69.492 255.447 70.1453 255.503 70.836C255.559 71.508 255.587 72.152 255.587 72.768C255.587 73.7387 255.503 74.6533 255.335 75.512C255.167 76.3707 254.915 77.1827 254.579 77.948C254.243 78.6947 253.823 79.4133 253.319 80.104L252.815 80.776C252.329 81.3733 251.76 81.9613 251.107 82.54C250.472 83.1187 249.772 83.6787 249.007 84.22H250.827C251.461 84.22 251.947 84.1827 252.283 84.108C252.619 84.0333 252.843 83.9307 252.955 83.8C253.085 83.6507 253.151 83.4827 253.151 83.296C253.151 82.96 252.861 82.4653 252.283 81.812C251.704 81.14 250.901 80.3747 249.875 79.516C248.848 78.6387 247.644 77.7147 246.263 76.744C244.9 75.7547 243.425 74.7653 241.839 73.776L243.883 70.78C246.085 72.1427 247.943 73.3933 249.455 74.532C250.985 75.6707 252.236 76.7067 253.207 77.64C254.196 78.5733 254.961 79.4227 255.503 80.188C256.044 80.9533 256.417 81.644 256.623 82.26C256.828 82.8573 256.931 83.3987 256.931 83.884C256.931 84.4253 256.847 84.948 256.679 85.452C256.511 85.9373 256.24 86.376 255.867 86.768C255.493 87.1413 255.008 87.44 254.411 87.664C253.813 87.888 253.076 88 252.199 88H243.967V84.248C245.889 82.8667 247.411 81.56 248.531 80.328C249.669 79.096 250.491 77.8827 250.995 76.688C251.499 75.4933 251.751 74.2613 251.751 72.992ZM241.587 70.36L241.111 68.4C241.764 68.288 242.249 68.1947 242.567 68.12C242.903 68.0453 243.257 67.9613 243.631 67.868L243.351 68.568C242.865 68.4 242.399 68.0733 241.951 67.588C241.521 67.084 241.307 66.5147 241.307 65.88C241.307 65.208 241.456 64.6667 241.755 64.256C242.053 63.8453 242.436 63.5467 242.903 63.36C243.369 63.1733 243.855 63.08 244.359 63.08C244.639 63.08 244.9 63.0987 245.143 63.136C245.404 63.1733 245.637 63.2293 245.843 63.304L245.619 65.32C245.432 65.2827 245.245 65.2453 245.059 65.208C244.872 65.1707 244.667 65.152 244.443 65.152C244.2 65.152 243.976 65.236 243.771 65.404C243.584 65.5533 243.491 65.74 243.491 65.964C243.491 66.2813 243.603 66.5613 243.827 66.804C244.051 67.0467 244.312 67.2427 244.611 67.392C244.928 67.5227 245.189 67.5973 245.395 67.616L243.855 67.784C244.359 67.6533 244.835 67.5227 245.283 67.392C245.731 67.2427 246.151 67.0933 246.543 66.944L247.103 68.82C246.636 68.988 246.085 69.1747 245.451 69.38C244.835 69.5667 244.191 69.744 243.519 69.912C242.865 70.08 242.221 70.2293 241.587 70.36ZM261.498 88L260.91 67.504H264.83L265.418 88H261.498Z" fill="black"/>
</g>
<defs>
<filter id="filter0_d_20_201" x="0" y="10.8024" width="333" height="133.59" filterUnits="userSpaceOnUse" color-interpolation-filters="sRGB">
<feFlood flood-opacity="0" result="BackgroundImageFix"/>
<feColorMatrix in="SourceAlpha" type="matrix" values="0 0 0 0 0 0 0 0 0 0 0 0 0 0 0 0 0 0 127 0" result="hardAlpha"/>
<feOffset dy="4"/>
<feGaussianBlur stdDeviation="2"/>
<feComposite in2="hardAlpha" operator="out"/>
<feColorMatrix type="matrix" values="0 0 0 0 0 0 0 0 0 0 0 0 0 0 0 0 0 0 0.25 0"/>
<feBlend mode="normal" in2="BackgroundImageFix" result="effect1_dropShadow_20_201"/>
<feBlend mode="normal" in="SourceGraphic" in2="effect1_dropShadow_20_201" result="shape"/>
</filter>
</defs>
</svg>
