<svg width="347" height="594" viewBox="0 0 347 594" fill="none" xmlns="http://www.w3.org/2000/svg">
<g filter="url(#filter0_d_20_130)">
<rect x="3.99927" y="41" width="339" height="497" rx="25" fill="#D9D9D9"/>
<path d="M36.0986 88.713L82.4416 49.3542L82.6005 48.9772L52.9472 36.4731L58.8284 22.526L106.575 42.6598L100.694 56.6068L54.0665 96.2896L36.0986 88.713Z" fill="#E45600"/>
<path d="M122.622 68.3693L123.354 86.2887L137.072 74.4624L154.286 81.7211L131.171 100.389L134.569 130.235L117.48 123.03L115.777 104.257L101.397 116.248L84.0575 108.936L107.926 90.5866L105.283 61.0576L122.622 68.3693Z" fill="#4D5D09"/>
<path d="M143.59 122.2L149.312 108.63L192.362 78.8342L204.676 84.0266L197.046 102.12L190.01 99.153L166.738 115.386L166.526 115.889L204.723 131.996L199.001 145.566L143.59 122.2ZM170.638 145.445L176.625 131.247L179.492 125.5L198.142 81.2714L214.477 88.1593L187.349 152.492L170.638 145.445Z" fill="#C00005"/>
<path d="M25.38 486.643L65 507.666V549.105L25.38 528.689V486.643Z" fill="#009389"/>
<path d="M65.8085 505.644L103.811 485.228V528.082L65.8085 550.318V505.644Z" fill="#009389"/>
<path d="M29.4229 485.228L65 464.812L101.79 485.228L65 505.644L29.4229 485.228Z" fill="#009389"/>
<path d="M29.6922 526.864L61.8329 545.409V508.676L29.6922 490.131V526.864ZM68.9753 545.409L101.116 526.864V490.012L68.9753 508.676V545.409ZM33.6205 484.187L65.4041 502.613L97.0687 484.187L65.4041 465.88L33.6205 484.187ZM22.5498 531.025V486.446C22.5498 485.178 22.8672 483.989 23.5021 482.879C24.137 481.77 25.01 480.898 26.121 480.264L61.8329 459.698C62.9439 459.064 64.1343 458.747 65.4041 458.747C66.6739 458.747 67.8643 459.064 68.9753 459.698L104.687 480.264C105.798 480.898 106.671 481.77 107.306 482.879C107.941 483.989 108.258 485.178 108.258 486.446V526.864C108.258 528.132 107.941 529.321 107.306 530.431C106.671 531.54 105.798 532.412 104.687 533.046L68.9753 553.612C67.8643 554.246 66.6739 554.563 65.4041 554.563C64.1343 554.563 62.9439 554.246 61.8329 553.612L22.5498 531.025Z" fill="#07B4A9"/>
<path d="M49.9283 509.665L49.5415 530.025L44.0141 529.92L44.3042 514.65L44.1849 514.648L39.6806 517.227L39.7697 512.535L44.8383 509.568L49.9283 509.665Z" fill="white"/>
<path d="M113.213 577.42L111.61 532.596L147.497 511.877L149.626 556.397L113.213 577.42Z" fill="#394601"/>
<path d="M109.455 532.907L72.7722 510.204L109.885 488.776L148.143 510.57L109.455 532.907Z" fill="#394601"/>
<path d="M109.967 574.626L74.4968 554.023L73.783 511.954L109.859 533.607L109.967 574.626Z" fill="#394601"/>
<path d="M145.89 553.574L145.88 516.467L114.068 534.834L114.078 571.941L145.89 553.574ZM142.309 510.281L110.178 491.719L78.263 510.145L110.497 528.648L142.309 510.281ZM106.966 571.511L107.032 534.772L75.242 516.563L75.2198 553.139L106.966 571.511ZM153.064 557.679L114.458 579.969C113.359 580.603 112.171 580.922 110.893 580.927C109.615 580.932 108.423 580.612 107.318 579.967L71.6519 559.322C70.5473 558.677 69.6776 557.805 69.0427 556.705C68.4078 555.606 68.0872 554.416 68.0807 553.137L68.0354 511.927C68.0289 510.647 68.3474 509.455 68.9908 508.351C69.6343 507.246 70.5051 506.377 71.6032 505.743L106.607 485.534C107.705 484.9 108.893 484.58 110.171 484.575C111.45 484.57 112.641 484.89 113.746 485.536L149.412 506.18C150.517 506.825 151.387 507.698 152.022 508.797C152.656 509.897 152.977 511.086 152.984 512.366L153.064 557.679Z" fill="#4D5D09"/>
<path d="M83.7065 554.042V550.064L91.3031 543.78C91.8069 543.363 92.2378 542.972 92.5957 542.607C92.9603 542.236 93.2387 541.855 93.431 541.464C93.6298 541.073 93.7292 540.638 93.7292 540.161C93.7292 539.637 93.6166 539.19 93.3912 538.819C93.1724 538.448 92.8675 538.162 92.4764 537.964C92.0853 537.758 91.6346 537.655 91.1241 537.655C90.6137 537.655 90.163 537.758 89.7719 537.964C89.3874 538.169 89.0891 538.471 88.877 538.868C88.6649 539.266 88.5588 539.75 88.5588 540.32H83.3088C83.3088 538.888 83.6303 537.655 84.2733 536.621C84.9163 535.587 85.8244 534.792 86.9977 534.235C88.171 533.678 89.5465 533.4 91.1241 533.4C92.7548 533.4 94.1667 533.662 95.3599 534.185C96.5597 534.702 97.4845 535.431 98.1341 536.373C98.7903 537.314 99.1185 538.418 99.1185 539.684C99.1185 540.466 98.956 541.245 98.6312 542.02C98.3064 542.789 97.7231 543.641 96.8812 544.576C96.0394 545.51 94.8429 546.624 93.2917 547.917L91.3827 549.508V549.627H99.3372V554.042H83.7065Z" fill="white"/>
<path d="M56.9142 453.896L96.5342 474.919V516.358L56.9142 495.941V453.896Z" fill="#890003"/>
<path d="M97.3428 472.897L135.346 452.481V495.335L97.3428 517.571V472.897Z" fill="#890003"/>
<path d="M60.957 452.481L96.5342 432.064L133.324 452.481L96.5342 472.897L60.957 452.481Z" fill="#890003"/>
<path d="M61.2265 494.117L93.3672 512.662V475.929L61.2265 457.384V494.117ZM100.51 512.662L132.65 494.117V457.265L100.51 475.929V512.662ZM65.1548 451.44L96.9384 469.866L128.603 451.44L96.9384 433.133L65.1548 451.44ZM54.0841 498.278V453.699C54.0841 452.431 54.4015 451.242 55.0364 450.132C55.6713 449.023 56.5443 448.151 57.6553 447.517L93.3672 426.951C94.4782 426.317 95.6686 426 96.9384 426C98.2082 426 99.3986 426.317 100.51 426.951L136.222 447.517C137.333 448.151 138.205 449.023 138.84 450.132C139.475 451.242 139.793 452.431 139.793 453.699V494.117C139.793 495.385 139.475 496.574 138.84 497.683C138.205 498.793 137.333 499.665 136.222 500.299L100.51 520.865C99.3986 521.499 98.2082 521.816 96.9384 521.816C95.6686 521.816 94.4782 521.499 93.3672 520.865L54.0841 498.278Z" fill="#C00005"/>
<path d="M76.2126 496.305C74.6087 496.274 73.189 495.972 71.9534 495.398C70.7246 494.818 69.7649 494.034 69.0743 493.046C68.3836 492.058 68.047 490.932 68.0645 489.666L73.6316 489.771C73.6308 490.163 73.7435 490.516 73.9695 490.832C74.2023 491.141 74.5225 491.386 74.9302 491.566C75.3378 491.746 75.8067 491.841 76.3369 491.852C76.8473 491.861 77.2996 491.78 77.6941 491.609C78.0886 491.431 78.3983 491.181 78.6232 490.861C78.8481 490.54 78.9612 490.171 78.9625 489.753C78.9769 489.343 78.8579 488.976 78.6055 488.653C78.3597 488.33 78.0098 488.074 77.5559 487.887C77.102 487.699 76.5768 487.6 75.9803 487.588L73.9125 487.549L73.9851 483.732L76.0529 483.771C76.603 483.781 77.0885 483.701 77.5094 483.53C77.937 483.359 78.2698 483.117 78.5078 482.803C78.7524 482.489 78.8753 482.127 78.8765 481.716C78.8907 481.319 78.8012 480.965 78.6082 480.657C78.4152 480.348 78.1413 480.104 77.7867 479.925C77.4387 479.746 77.0328 479.652 76.5688 479.643C76.0652 479.634 75.6128 479.715 75.2117 479.886C74.8173 480.058 74.5044 480.3 74.273 480.614C74.0416 480.928 73.9187 481.29 73.9043 481.701L68.6155 481.601C68.6458 480.355 69.008 479.261 69.7021 478.32C70.4029 477.378 71.3516 476.647 72.5483 476.126C73.7449 475.605 75.1121 475.359 76.6497 475.389C78.1541 475.417 79.4781 475.698 80.6216 476.23C81.7718 476.762 82.6631 477.482 83.2956 478.389C83.9349 479.289 84.2403 480.313 84.2119 481.459C84.2035 482.6 83.7947 483.527 82.9855 484.241C82.183 484.955 81.174 485.366 79.9587 485.476L79.9557 485.635C81.5959 485.845 82.8224 486.372 83.6351 487.217C84.4479 488.054 84.8359 489.096 84.799 490.342C84.7829 491.535 84.4049 492.585 83.665 493.492C82.9318 494.4 81.9206 495.104 80.6315 495.603C79.3491 496.102 77.8761 496.336 76.2126 496.305Z" fill="white"/>
<path d="M165.771 348.933L176.649 354.032L185.623 334.886L204.769 343.86L209.867 332.982L190.722 324.008L199.696 304.862L188.818 299.763L179.844 318.909L160.698 309.935L155.599 320.813L174.745 329.787L165.771 348.933ZM216.116 363.243L259.847 383.741L264.843 373.08L221.113 352.582L216.116 363.243ZM227.028 339.964L270.758 360.461L275.857 349.583L232.127 329.086L227.028 339.964ZM251.7 308.274L271.192 301.223L278.243 320.715L289.746 316.554L282.696 297.062L302.188 290.011L298.026 278.508L278.534 285.559L271.484 266.067L259.98 270.228L267.031 289.72L247.539 296.771L251.7 308.274ZM188.334 259.467L230.977 279.454L236.076 268.576L193.433 248.589L188.334 259.467ZM125.604 358.765C122.123 357.133 119.689 354.4 118.302 350.565C116.915 346.731 117.037 343.073 118.668 339.592L179.855 209.054C181.487 205.573 184.22 203.139 188.054 201.752C191.889 200.365 195.546 200.487 199.027 202.119L329.566 263.305C333.047 264.937 335.481 267.67 336.868 271.504C338.255 275.339 338.133 278.997 336.501 282.478L275.314 413.016C273.683 416.497 270.95 418.931 267.115 420.318C263.281 421.705 259.623 421.583 256.142 419.951L125.604 358.765ZM131.722 345.711L262.261 406.897L323.447 276.359L192.909 215.172L131.722 345.711Z" fill="#07B4A9"/>
<path d="M95.5608 273.76L98.3048 266.648C99.6862 267.245 101.011 267.693 102.281 267.992C103.55 268.291 104.819 268.44 106.089 268.44C107.395 268.44 108.478 268.328 109.337 268.104C110.233 267.843 110.905 267.469 111.353 266.984C111.801 266.499 112.025 265.92 112.025 265.248C112.025 264.613 111.819 263.736 111.409 262.616C111.035 261.496 110.345 260.04 109.337 258.248C108.329 256.419 106.854 254.16 104.913 251.472L111.577 247.048C113.369 249.587 114.918 252.069 116.225 254.496C117.531 256.885 118.539 259.125 119.249 261.216C119.995 263.269 120.369 265.08 120.369 266.648C120.369 268.589 119.846 270.288 118.801 271.744C117.793 273.163 116.281 274.283 114.265 275.104C112.286 275.925 109.841 276.336 106.929 276.336C105.846 276.336 104.633 276.243 103.289 276.056C101.945 275.869 100.582 275.589 99.2008 275.216C97.8568 274.843 96.6435 274.357 95.5608 273.76ZM127.011 276L125.835 235.008H133.675L134.851 276H127.011ZM150.051 268.44C151.731 268.44 153.019 268.291 153.915 267.992C154.811 267.693 155.427 267.301 155.763 266.816C156.099 266.331 156.267 265.808 156.267 265.248C156.267 264.352 156.006 263.307 155.483 262.112C154.998 260.917 154.382 259.667 153.635 258.36C152.888 257.053 152.104 255.803 151.283 254.608C150.499 253.413 149.79 252.368 149.155 251.472L155.819 247.048C157.424 249.213 158.806 251.36 159.963 253.488C161.12 255.579 162.054 257.52 162.763 259.312C163.51 261.104 164.032 262.635 164.331 263.904C164.63 265.099 165.078 266.032 165.675 266.704C166.31 267.339 167.038 267.787 167.859 268.048C168.68 268.309 169.502 268.44 170.323 268.44C171.742 268.44 172.75 268.813 173.347 269.56C173.982 270.269 174.299 271.165 174.299 272.248C174.299 273.405 173.907 274.376 173.123 275.16C172.376 275.907 171.256 276.28 169.763 276.28C168.12 276.28 166.683 276.056 165.451 275.608C164.219 275.16 163.174 274.451 162.315 273.48C161.456 272.509 160.728 271.277 160.131 269.784L163.547 270.512C163.248 271.557 162.558 272.528 161.475 273.424C160.43 274.283 159.03 274.992 157.275 275.552C155.558 276.075 153.523 276.336 151.171 276.336C150.051 276.336 148.8 276.243 147.419 276.056C146.075 275.869 144.731 275.589 143.387 275.216C142.08 274.843 140.886 274.357 139.803 273.76L142.547 266.648C143.928 267.245 145.254 267.693 146.523 267.992C147.83 268.291 149.006 268.44 150.051 268.44ZM169.835 276.28L170.395 268.44C172.15 268.44 173.494 268.421 174.427 268.384C175.398 268.347 176.126 268.309 176.611 268.272C177.097 268.197 177.507 268.141 177.843 268.104C177.47 267.731 176.985 267.189 176.387 266.48C175.79 265.771 175.249 264.856 174.763 263.736C174.315 262.616 174.091 261.272 174.091 259.704C174.091 257.427 174.67 255.429 175.827 253.712C177.022 251.995 178.627 250.651 180.643 249.68C182.659 248.709 184.918 248.224 187.419 248.224C188.614 248.224 189.715 248.299 190.723 248.448C191.769 248.597 192.814 248.821 193.859 249.12L192.627 256.568C191.881 256.381 191.097 256.232 190.275 256.12C189.454 256.008 188.726 255.952 188.091 255.952C186.859 255.952 185.777 256.157 184.843 256.568C183.947 256.941 183.238 257.483 182.715 258.192C182.23 258.864 181.987 259.685 181.987 260.656C181.987 261.291 182.099 261.888 182.323 262.448C182.585 263.008 182.902 263.512 183.275 263.96C183.649 264.408 184.059 264.8 184.507 265.136C184.955 265.472 185.385 265.752 185.795 265.976C186.243 266.163 186.617 266.293 186.915 266.368C187.849 266.107 188.651 265.883 189.323 265.696C190.033 265.472 190.705 265.267 191.339 265.08C192.011 264.856 192.739 264.576 193.523 264.24C194.307 263.904 195.278 263.493 196.435 263.008L198.955 270.4C195.819 271.931 192.758 273.125 189.771 273.984C186.785 274.843 183.686 275.44 180.475 275.776C177.265 276.112 173.718 276.28 169.835 276.28ZM223.071 245.984C223.071 244.752 222.996 243.52 222.847 242.288C222.735 241.056 222.586 239.899 222.399 238.816C222.212 237.696 222.044 236.725 221.895 235.904L229.735 234.784C229.884 235.531 230.034 236.52 230.183 237.752C230.332 238.984 230.463 240.291 230.575 241.672C230.687 243.016 230.743 244.304 230.743 245.536C230.743 247.477 230.575 249.307 230.239 251.024C229.903 252.741 229.399 254.365 228.727 255.896C228.055 257.389 227.215 258.827 226.207 260.208L225.199 261.552C224.228 262.747 223.09 263.923 221.783 265.08C220.514 266.237 219.114 267.357 217.583 268.44H221.223C222.492 268.44 223.463 268.365 224.135 268.216C224.807 268.067 225.255 267.861 225.479 267.6C225.74 267.301 225.871 266.965 225.871 266.592C225.871 265.92 225.292 264.931 224.135 263.624C222.978 262.28 221.372 260.749 219.319 259.032C217.266 257.277 214.858 255.429 212.095 253.488C209.37 251.509 206.42 249.531 203.247 247.552L207.335 241.56C211.74 244.285 215.455 246.787 218.479 249.064C221.54 251.341 224.042 253.413 225.983 255.28C227.962 257.147 229.492 258.845 230.575 260.376C231.658 261.907 232.404 263.288 232.815 264.52C233.226 265.715 233.431 266.797 233.431 267.768C233.431 268.851 233.263 269.896 232.927 270.904C232.591 271.875 232.05 272.752 231.303 273.536C230.556 274.283 229.586 274.88 228.391 275.328C227.196 275.776 225.722 276 223.967 276H207.503V268.496C211.348 265.733 214.391 263.12 216.631 260.656C218.908 258.192 220.551 255.765 221.559 253.376C222.567 250.987 223.071 248.523 223.071 245.984ZM202.743 240.72L201.791 236.8C203.098 236.576 204.068 236.389 204.703 236.24C205.375 236.091 206.084 235.923 206.831 235.736L206.271 237.136C205.3 236.8 204.367 236.147 203.471 235.176C202.612 234.168 202.183 233.029 202.183 231.76C202.183 230.416 202.482 229.333 203.079 228.512C203.676 227.691 204.442 227.093 205.375 226.72C206.308 226.347 207.279 226.16 208.287 226.16C208.847 226.16 209.37 226.197 209.855 226.272C210.378 226.347 210.844 226.459 211.255 226.608L210.807 230.64C210.434 230.565 210.06 230.491 209.687 230.416C209.314 230.341 208.903 230.304 208.455 230.304C207.97 230.304 207.522 230.472 207.111 230.808C206.738 231.107 206.551 231.48 206.551 231.928C206.551 232.563 206.775 233.123 207.223 233.608C207.671 234.093 208.194 234.485 208.791 234.784C209.426 235.045 209.948 235.195 210.359 235.232L207.279 235.568C208.287 235.307 209.239 235.045 210.135 234.784C211.031 234.485 211.871 234.187 212.655 233.888L213.775 237.64C212.842 237.976 211.74 238.349 210.471 238.76C209.239 239.133 207.951 239.488 206.607 239.824C205.3 240.16 204.012 240.459 202.743 240.72ZM242.565 276L241.389 235.008H249.229L250.405 276H242.565ZM82.9477 345.176L84.4037 337.336C88.025 337.336 91.1797 337.243 93.8677 337.056C96.5557 336.832 98.777 336.515 100.532 336.104C102.324 335.656 103.649 335.077 104.508 334.368C105.404 333.659 105.852 332.8 105.852 331.792C105.852 330.448 105.628 328.843 105.18 326.976C104.732 325.072 104.153 323.149 103.444 321.208L110.78 319.08C111.265 320.349 111.732 321.749 112.18 323.28C112.628 324.773 112.982 326.285 113.244 327.816C113.542 329.309 113.692 330.709 113.692 332.016C113.692 334.331 113.188 336.328 112.18 338.008C111.172 339.651 109.492 341.013 107.14 342.096C104.825 343.141 101.689 343.907 97.7317 344.392C93.7744 344.915 88.8464 345.176 82.9477 345.176ZM82.8917 345.176C78.8597 345.176 75.4437 344.859 72.6437 344.224C69.881 343.627 67.6224 342.768 65.8677 341.648C64.1504 340.491 62.8997 339.147 62.1157 337.616C61.3317 336.085 60.9397 334.405 60.9397 332.576C60.9397 331.381 61.033 330.187 61.2197 328.992C61.4437 327.76 61.705 326.565 62.0037 325.408C62.3397 324.251 62.6384 323.205 62.8997 322.272L69.8997 323.896C69.7504 324.568 69.5824 325.296 69.3957 326.08C69.209 326.864 69.0597 327.629 68.9477 328.376C68.8357 329.085 68.7797 329.739 68.7797 330.336C68.7797 331.717 69.265 332.949 70.2357 334.032C71.2437 335.077 72.8864 335.899 75.1637 336.496C77.441 337.056 80.5024 337.336 84.3477 337.336L85.4677 343.384L82.8917 345.176ZM87.2037 358.28C86.121 358.28 85.1877 357.907 84.4037 357.16C83.657 356.413 83.2837 355.499 83.2837 354.416C83.2837 353.333 83.657 352.381 84.4037 351.56C85.1877 350.776 86.121 350.384 87.2037 350.384C88.2864 350.384 89.201 350.776 89.9477 351.56C90.7317 352.381 91.1237 353.333 91.1237 354.416C91.1237 355.499 90.7317 356.413 89.9477 357.16C89.201 357.907 88.2864 358.28 87.2037 358.28ZM134.267 344.28C130.795 344.28 128.107 343.925 126.203 343.216C124.336 342.507 123.03 341.405 122.283 339.912C121.536 338.381 121.107 336.459 120.995 334.144L119.819 303.008H127.659L128.835 330.392C128.91 332.109 129.096 333.397 129.395 334.256C129.694 335.115 130.254 335.693 131.075 335.992C131.934 336.291 133.184 336.44 134.827 336.44C136.246 336.44 137.254 336.813 137.851 337.56C138.486 338.269 138.803 339.165 138.803 340.248C138.803 341.405 138.411 342.376 137.627 343.16C136.843 343.907 135.723 344.28 134.267 344.28ZM134.343 344.28L134.903 336.44C136.135 336.44 137.143 336.347 137.927 336.16C138.711 335.936 139.346 335.469 139.831 334.76C140.354 334.013 140.802 332.912 141.175 331.456C141.586 329.963 142.034 327.947 142.519 325.408L149.799 326.752C149.65 327.573 149.444 328.6 149.183 329.832C148.959 331.064 148.847 332.128 148.847 333.024C148.847 333.733 148.978 334.349 149.239 334.872C149.538 335.357 150.023 335.749 150.695 336.048C151.404 336.309 152.375 336.44 153.607 336.44C154.578 336.44 155.399 336.347 156.071 336.16C156.78 335.936 157.378 335.469 157.863 334.76C158.386 334.013 158.834 332.875 159.207 331.344C159.618 329.776 160.01 327.667 160.383 325.016L167.775 326.192C167.626 327.051 167.476 327.965 167.327 328.936C167.178 329.907 167.047 330.803 166.935 331.624C166.823 332.445 166.767 333.117 166.767 333.64C166.767 334.125 166.898 334.592 167.159 335.04C167.458 335.451 167.98 335.787 168.727 336.048C169.511 336.309 170.594 336.44 171.975 336.44C173.655 336.44 174.887 336.085 175.671 335.376C176.492 334.629 176.903 333.509 176.903 332.016C176.903 331.157 176.884 330.243 176.847 329.272C176.81 328.264 176.735 327.144 176.623 325.912C176.548 324.643 176.399 323.205 176.175 321.6L183.399 321.04C183.66 324.251 183.959 326.864 184.295 328.88C184.631 330.896 185.079 332.464 185.639 333.584C186.236 334.667 187.02 335.413 187.991 335.824C188.999 336.235 190.306 336.44 191.911 336.44C193.33 336.44 194.338 336.813 194.935 337.56C195.57 338.269 195.887 339.165 195.887 340.248C195.887 341.405 195.495 342.376 194.711 343.16C193.964 343.907 192.844 344.28 191.351 344.28C190.343 344.28 189.298 344.187 188.215 344C187.132 343.851 186.087 343.533 185.079 343.048C184.071 342.525 183.175 341.779 182.391 340.808C181.607 339.837 180.991 338.549 180.543 336.944L181.551 337.28C181.028 339.147 180.319 340.584 179.423 341.592C178.527 342.6 177.426 343.309 176.119 343.72C174.812 344.093 173.244 344.28 171.415 344.28C169.735 344.28 168.242 344.056 166.935 343.608C165.628 343.16 164.583 342.432 163.799 341.424C163.052 340.379 162.66 338.979 162.623 337.224H164.527C163.78 339.315 162.922 340.864 161.951 341.872C160.98 342.88 159.804 343.533 158.423 343.832C157.042 344.131 155.306 344.28 153.215 344.28C151.946 344.28 150.695 344.149 149.463 343.888C148.231 343.589 147.13 342.936 146.159 341.928C145.188 340.883 144.479 339.24 144.031 337L147.055 336.888C146.271 339.091 145.244 340.715 143.975 341.76C142.743 342.805 141.324 343.496 139.719 343.832C138.114 344.131 136.322 344.28 134.343 344.28ZM228.006 344.28C226.289 344.28 224.683 344.149 223.19 343.888C221.734 343.627 220.39 343.179 219.158 342.544C217.926 341.872 216.825 340.957 215.854 339.8C214.921 338.643 214.137 337.187 213.502 335.432L217.926 331.904C218.598 333.099 219.419 334.032 220.39 334.704C221.361 335.339 222.518 335.787 223.862 336.048C225.206 336.309 226.774 336.44 228.566 336.44C229.985 336.44 230.993 336.813 231.59 337.56C232.187 338.269 232.486 339.165 232.486 340.248C232.486 341.405 232.094 342.376 231.31 343.16C230.563 343.907 229.462 344.28 228.006 344.28ZM191.382 344.28L191.942 336.44C193.958 336.44 195.955 336.328 197.934 336.104C199.913 335.88 201.835 335.544 203.702 335.096C205.569 334.648 207.342 334.069 209.022 333.36C210.739 332.651 212.345 331.792 213.838 330.784C212.718 330.112 211.505 329.533 210.198 329.048C208.891 328.563 207.491 328.208 205.998 327.984C204.542 327.723 202.993 327.592 201.35 327.592C200.753 327.592 200.118 327.611 199.446 327.648C198.811 327.685 198.158 327.76 197.486 327.872C196.814 327.947 196.142 328.059 195.47 328.208L194.35 320.536C195.433 320.237 196.571 320.032 197.766 319.92C198.998 319.771 200.081 319.696 201.014 319.696C203.03 319.696 204.878 319.92 206.558 320.368C208.275 320.816 209.843 321.376 211.262 322.048C212.718 322.72 214.062 323.392 215.294 324.064C216.563 324.736 217.758 325.296 218.878 325.744C220.035 326.192 221.155 326.416 222.238 326.416H224.31L225.206 333.864C223.601 333.939 222.089 334.256 220.67 334.816C219.289 335.339 217.907 336.011 216.526 336.832C215.182 337.616 213.726 338.437 212.158 339.296C210.627 340.155 208.891 340.957 206.95 341.704C205.009 342.451 202.769 343.067 200.23 343.552C197.691 344.037 194.742 344.28 191.382 344.28ZM228.023 344.28L228.583 336.44C230.3 336.44 231.532 336.272 232.279 335.936C233.025 335.563 233.473 334.891 233.623 333.92C233.772 332.912 233.809 331.456 233.735 329.552L232.727 303.008H240.623L241.743 330.112C241.817 332.277 241.724 334.237 241.463 335.992C241.239 337.709 240.66 339.184 239.727 340.416C238.831 341.648 237.431 342.6 235.527 343.272C233.66 343.944 231.159 344.28 228.023 344.28ZM249.128 344L247.952 303.008H255.792L256.968 344H249.128ZM263.152 356.88L261.528 349.04C264.179 348.704 266.494 348.293 268.472 347.808C270.451 347.36 272.112 346.725 273.456 345.904C274.8 345.083 275.808 343.963 276.48 342.544C277.152 341.088 277.488 339.221 277.488 336.944C277.488 336.123 277.414 335.301 277.264 334.48C277.115 333.621 276.891 332.837 276.592 332.128C276.294 331.419 275.902 330.84 275.416 330.392C274.968 329.944 274.427 329.72 273.792 329.72C273.12 329.72 272.523 329.963 272 330.448C271.478 330.896 271.067 331.475 270.768 332.184C270.47 332.856 270.32 333.547 270.32 334.256C270.32 334.779 270.451 335.227 270.712 335.6C270.974 335.936 271.366 336.197 271.888 336.384C272.411 336.533 273.064 336.608 273.848 336.608C274.744 336.608 275.659 336.515 276.592 336.328C277.563 336.104 278.44 335.805 279.224 335.432L279.448 341.536C278.552 342.245 277.526 342.88 276.368 343.44C275.211 343.963 273.811 344.224 272.168 344.224C270.824 344.224 269.574 344.075 268.416 343.776C267.259 343.44 266.232 342.936 265.336 342.264C264.478 341.592 263.806 340.733 263.32 339.688C262.835 338.605 262.592 337.317 262.592 335.824C262.592 333.995 262.891 332.221 263.488 330.504C264.086 328.787 264.907 327.256 265.952 325.912C267.035 324.531 268.267 323.448 269.648 322.664C271.067 321.843 272.56 321.432 274.128 321.432C275.995 321.432 277.619 321.899 279 322.832C280.419 323.765 281.595 324.997 282.528 326.528C283.462 328.021 284.171 329.645 284.656 331.4C285.142 333.155 285.384 334.835 285.384 336.44C285.384 340.659 284.488 344.243 282.696 347.192C280.904 350.141 278.347 352.419 275.024 354.024C271.702 355.667 267.744 356.619 263.152 356.88Z" fill="black"/>
</g>
<defs>
<filter id="filter0_d_20_130" x="-0.000732422" y="22.526" width="347" height="566.401" filterUnits="userSpaceOnUse" color-interpolation-filters="sRGB">
<feFlood flood-opacity="0" result="BackgroundImageFix"/>
<feColorMatrix in="SourceAlpha" type="matrix" values="0 0 0 0 0 0 0 0 0 0 0 0 0 0 0 0 0 0 127 0" result="hardAlpha"/>
<feOffset dy="4"/>
<feGaussianBlur stdDeviation="2"/>
<feComposite in2="hardAlpha" operator="out"/>
<feColorMatrix type="matrix" values="0 0 0 0 0 0 0 0 0 0 0 0 0 0 0 0 0 0 0.25 0"/>
<feBlend mode="normal" in2="BackgroundImageFix" result="effect1_dropShadow_20_130"/>
<feBlend mode="normal" in="SourceGraphic" in2="effect1_dropShadow_20_130" result="shape"/>
</filter>
</defs>
</svg>
