<svg width="227" height="200" viewBox="0 0 227 200" fill="none" xmlns="http://www.w3.org/2000/svg">
<path d="M113.131 200C104.904 193.504 95.9902 188.462 86.3912 184.872C76.7922 181.282 66.8503 179.487 56.5657 179.487C49.3664 179.487 42.2957 180.427 35.3535 182.308C28.4114 184.188 21.7692 186.838 15.427 190.256C11.8274 192.137 8.35629 192.051 5.01377 190C1.67126 187.949 0 184.957 0 181.026V57.4359C0 55.5556 0.47138 53.7607 1.41414 52.0513C2.3569 50.3419 3.77104 49.0598 5.65657 48.2051C13.5415 44.1026 21.7692 41.0256 30.3398 38.9744C38.9103 36.9231 47.6523 35.8974 56.5657 35.8974C66.5075 35.8974 76.2351 37.1795 85.7484 39.7436C95.2617 42.3077 104.389 46.1538 113.131 51.2821V181.026C121.873 175.385 131.044 171.154 140.643 168.333C150.242 165.513 159.927 164.103 169.697 164.103C175.868 164.103 182.596 164.701 189.881 165.897C197.166 167.094 204.151 169.573 210.836 173.333V43.8462C212.53 44.4872 214.197 45.1603 215.835 45.8654C217.473 46.5705 219.063 47.3504 220.606 48.2051C222.32 49.2308 223.691 50.5707 224.72 52.2249C225.748 53.8792 226.263 55.6162 226.263 57.4359V181.026C226.263 184.957 224.591 187.949 221.249 190C217.906 192.051 214.435 192.137 210.836 190.256C204.493 186.838 197.851 184.188 190.909 182.308C183.967 180.427 176.896 179.487 169.697 179.487C159.412 179.487 149.47 181.282 139.871 184.872C130.272 188.462 121.359 193.504 113.131 200ZM128.558 157.179V66.6667L195.409 0V99.2308L128.558 157.179ZM97.7043 173.333V60.7692C91.8763 57.5214 85.1056 55.1282 77.3921 53.5897C69.6786 52.0513 62.7365 51.2821 56.5657 51.2821C48.5093 51.2821 41.0101 52.1368 34.068 53.8462C27.1258 55.5556 20.9122 57.7379 15.427 60.3931V173.333C21.4264 170.427 27.8972 168.162 34.8393 166.538C41.7815 164.915 49.0664 164.103 56.6942 164.103C64.322 164.103 71.5641 164.915 78.4206 166.538C85.277 168.162 91.7049 170.427 97.7043 173.333Z" fill="#C00005"/>
</svg>
