<svg width="333" height="132" viewBox="0 0 333 132" fill="none" xmlns="http://www.w3.org/2000/svg">
<g filter="url(#filter0_d_20_200)">
<rect x="4" y="25" width="325" height="77" rx="15" fill="#D9D9D9"/>
<path d="M26.0891 78.9005L19.6232 67.8564C19.0629 66.9883 18.9008 66.0892 19.1366 65.1589C19.3725 64.2287 19.9514 63.4845 20.8733 62.9262C21.7952 62.3679 52.5014 43.7732 52.5014 43.7732C53.4233 43.215 54.4036 43.0675 55.4424 43.3309C56.4811 43.5942 57.2727 44.191 57.8172 45.1211L63.9431 55.5846C64.4422 56.4372 64.5503 57.4216 64.2672 58.5379C63.9842 59.6541 63.4201 60.4681 62.575 60.9799L30.9469 80.1328C30.025 80.6911 29.1058 80.8541 28.1893 80.6217C27.2728 80.3893 26.5725 79.8151 26.0891 78.9005ZM29.5418 74.1334L45.3824 64.5408L41.1623 57.3326L25.3217 66.9252L29.5418 74.1334Z" fill="#C00005"/>
<path d="M157.661 111.621C156.104 111.153 154.939 110.196 154.165 108.75C153.391 107.304 153.239 105.8 153.709 104.238L165.22 65.9612C165.746 64.2095 166.923 63.247 168.75 63.0737C170.577 62.9004 171.935 63.6444 172.825 65.3057L175.048 69.4589L171.179 71.5477L172.513 74.0397L176.382 71.9509L182.163 82.7494L178.293 84.8382L179.628 87.3302L183.497 85.2414L189.327 96.1322L185.458 98.221L186.792 100.713L190.661 98.6242L196.441 109.423L192.572 111.511L193.906 114.003L197.775 111.915L199.999 116.068C200.987 117.914 200.853 119.642 199.597 121.252C198.341 122.861 196.77 123.383 194.883 122.815L157.661 111.621ZM159.37 105.94L192.133 115.793L169.258 73.0607L159.37 105.94Z" fill="#E45600"/>
<path d="M306.952 19.9171L294.176 12.1724L297.666 6.39796C298.231 5.46305 299.064 4.86006 300.167 4.589C301.269 4.31795 302.288 4.46556 303.222 5.03183L309.074 8.5794C310.008 9.14568 310.611 9.98072 310.883 11.0845C311.154 12.1884 311.007 13.2077 310.442 14.1426L306.952 19.9171ZM272.967 61.7044L270.426 51.3726L280.099 35.3691L261.866 24.2604L270.509 9.77429L288.89 20.9166L294.176 12.1724L306.952 19.9171L301.667 28.6613L320.048 39.8037L311.29 54.1074L293.008 43.0813L283.285 59.1673L272.967 61.7044ZM282.243 31.8219L286.73 24.3976L280.713 20.7501L278.32 24.7097L274.858 22.6112L277.251 18.6515L271.976 15.4537L267.488 22.8781L282.243 31.8219ZM309.79 48.5767L314.277 41.1524L309.002 37.9546L306.609 41.9142L303.147 39.8156L305.54 35.856L299.523 32.2085L295.036 39.6328L309.79 48.5767ZM275.958 56.7548L280.588 55.6164L301.28 21.382L295.51 17.8844L274.818 52.1188L275.958 56.7548Z" fill="#4D5D09"/>
<path d="M71.645 80.496C70.301 80.496 69.0877 80.3373 68.005 80.02C66.9223 79.7213 65.989 79.264 65.205 78.648C64.421 78.032 63.8143 77.2667 63.385 76.352C62.9743 75.456 62.769 74.4107 62.769 73.216C62.769 72.7867 62.8063 72.2827 62.881 71.704C62.9557 71.1253 63.0957 70.472 63.301 69.744C63.5063 68.9973 63.8143 68.1667 64.225 67.252L67.669 68.456C67.4637 69.0347 67.2863 69.5667 67.137 70.052C66.9877 70.5187 66.8757 70.9573 66.801 71.368C66.7263 71.76 66.689 72.152 66.689 72.544C66.689 73.272 66.857 73.944 67.193 74.56C67.529 75.176 68.0703 75.6613 68.817 76.016C69.5637 76.3893 70.5437 76.576 71.757 76.576C72.877 76.576 73.8103 76.4453 74.557 76.184C75.3037 75.9413 75.8917 75.596 76.321 75.148C76.7504 74.7187 77.0584 74.2147 77.245 73.636C77.4317 73.0573 77.525 72.432 77.525 71.76C77.525 71.2373 77.4597 70.6493 77.329 69.996C77.217 69.3427 77.049 68.6333 76.825 67.868C76.601 67.084 76.349 66.2627 76.069 65.404L79.989 64.396C80.1757 65.1053 80.325 65.712 80.437 66.216C80.5677 66.72 80.6797 67.14 80.773 67.476C80.8663 67.7933 80.941 68.0547 80.997 68.26C81.1837 68.82 81.4077 69.2493 81.669 69.548C81.949 69.828 82.257 70.0147 82.593 70.108C82.9477 70.2013 83.3397 70.248 83.769 70.248C84.1237 70.248 84.4503 70.192 84.749 70.08C85.0477 69.968 85.3183 69.7347 85.561 69.38C85.8223 69.0067 86.0557 68.4373 86.261 67.672C86.4664 66.9067 86.653 65.852 86.821 64.508L90.517 65.096C90.4423 65.5253 90.3677 65.9827 90.293 66.468C90.2183 66.9533 90.153 67.4107 90.097 67.84C90.041 68.2507 90.013 68.5867 90.013 68.848C90.013 69.0907 90.0784 69.3147 90.209 69.52C90.3584 69.7253 90.6197 69.8933 90.993 70.024C91.3663 70.1547 91.8984 70.22 92.589 70.22C93.093 70.22 93.5317 70.1733 93.905 70.08C94.2784 69.968 94.5677 69.772 94.773 69.492C94.9784 69.1933 95.081 68.7733 95.081 68.232C95.081 67.7653 95.0064 67.2053 94.857 66.552C94.7077 65.88 94.5117 65.152 94.269 64.368C94.045 63.584 93.7837 62.7813 93.485 61.96L97.433 60.784C97.7317 61.5867 97.993 62.4453 98.217 63.36C98.4597 64.256 98.6464 65.1333 98.777 65.992C98.9264 66.832 99.001 67.5693 99.001 68.204C99.001 69.1933 98.8517 70.0613 98.553 70.808C98.273 71.5547 97.853 72.18 97.293 72.684C96.7517 73.1693 96.089 73.5333 95.305 73.776C94.521 74.0187 93.6437 74.14 92.673 74.14C91.9637 74.14 91.3103 74.0653 90.713 73.916C90.1343 73.748 89.6303 73.5147 89.201 73.216C88.7904 72.9173 88.473 72.5533 88.249 72.124C88.025 71.676 87.9224 71.172 87.941 70.612H88.893C88.613 71.6387 88.2304 72.404 87.745 72.908C87.2597 73.412 86.7183 73.748 86.121 73.916C85.5237 74.0653 84.917 74.14 84.301 74.14C83.8157 74.14 83.349 74.0933 82.901 74C82.453 73.9067 82.0423 73.7573 81.669 73.552C81.3144 73.328 81.0064 73.0387 80.745 72.684C80.4837 72.3107 80.3064 71.8627 80.213 71.34L81.249 72.46C81.2117 73.7293 80.9597 74.8587 80.493 75.848C80.0263 76.8373 79.373 77.6773 78.533 78.368C77.7117 79.0587 76.713 79.5813 75.537 79.936C74.3797 80.3093 73.0823 80.496 71.645 80.496ZM109.28 74.14C107.544 74.14 106.2 73.9627 105.248 73.608C104.315 73.2533 103.662 72.7027 103.288 71.956C102.915 71.1907 102.7 70.2293 102.644 69.072L102.056 53.504H105.976L106.564 67.196C106.602 68.0547 106.695 68.6987 106.844 69.128C106.994 69.5573 107.274 69.8467 107.684 69.996C108.114 70.1453 108.739 70.22 109.56 70.22C110.27 70.22 110.774 70.4067 111.072 70.78C111.39 71.1347 111.548 71.5827 111.548 72.124C111.548 72.7027 111.352 73.188 110.96 73.58C110.568 73.9533 110.008 74.14 109.28 74.14ZM109.318 74.14L109.598 70.22C110.27 70.22 110.849 70.1547 111.334 70.024C111.82 69.8933 112.23 69.632 112.566 69.24C112.902 68.8293 113.182 68.232 113.406 67.448C113.649 66.664 113.864 65.6187 114.05 64.312L117.718 64.928C117.681 65.208 117.625 65.5347 117.55 65.908C117.494 66.2813 117.438 66.664 117.382 67.056C117.345 67.4293 117.326 67.784 117.326 68.12C117.326 68.456 117.392 68.7547 117.522 69.016C117.653 69.2773 117.858 69.5013 118.138 69.688C118.437 69.856 118.82 69.9867 119.286 70.08C119.772 70.1733 120.36 70.22 121.05 70.22C121.76 70.22 122.264 70.4067 122.562 70.78C122.861 71.1347 123.01 71.5827 123.01 72.124C123.01 72.7027 122.814 73.188 122.422 73.58C122.049 73.9533 121.498 74.14 120.77 74.14C119.93 74.14 119.165 74.0747 118.474 73.944C117.802 73.8133 117.214 73.5987 116.71 73.3C116.225 72.9827 115.824 72.572 115.506 72.068C115.208 71.5453 115.021 70.9107 114.946 70.164H116.29C115.954 71.06 115.525 71.7787 115.002 72.32C114.498 72.8427 113.929 73.2347 113.294 73.496C112.66 73.7573 111.997 73.9253 111.306 74C110.634 74.0933 109.972 74.14 109.318 74.14ZM117.13 80.636C116.589 80.636 116.122 80.44 115.73 80.048C115.357 79.6747 115.17 79.2267 115.17 78.704C115.17 78.1627 115.357 77.696 115.73 77.304C116.122 76.912 116.589 76.716 117.13 76.716C117.653 76.716 118.101 76.912 118.474 77.304C118.848 77.696 119.034 78.1627 119.034 78.704C119.034 79.2267 118.848 79.6747 118.474 80.048C118.101 80.44 117.653 80.636 117.13 80.636ZM112.286 80.636C111.745 80.636 111.278 80.44 110.886 80.048C110.513 79.6747 110.326 79.2267 110.326 78.704C110.326 78.1627 110.513 77.696 110.886 77.304C111.278 76.912 111.745 76.716 112.286 76.716C112.809 76.716 113.257 76.912 113.63 77.304C114.004 77.696 114.19 78.1627 114.19 78.704C114.19 79.2267 114.004 79.6747 113.63 80.048C113.257 80.44 112.809 80.636 112.286 80.636ZM120.775 74.14L121.055 70.248C121.783 70.2667 122.455 70.2573 123.071 70.22C123.687 70.1827 124.238 70.1267 124.723 70.052C125.227 69.9773 125.666 69.8933 126.039 69.8C126.431 69.7067 126.758 69.6227 127.019 69.548C127.654 69.3427 128.195 69.1 128.643 68.82C129.091 68.5213 129.437 68.1853 129.679 67.812C129.922 67.4387 130.043 67.0373 130.043 66.608C130.043 66.272 129.969 65.936 129.819 65.6C129.689 65.2453 129.493 64.956 129.231 64.732C128.97 64.508 128.662 64.396 128.307 64.396C127.971 64.396 127.663 64.4987 127.383 64.704C127.103 64.9093 126.879 65.1893 126.711 65.544C126.543 65.88 126.459 66.272 126.459 66.72C126.459 67.112 126.553 67.4853 126.739 67.84C126.926 68.176 127.187 68.5027 127.523 68.82C127.859 69.1373 128.261 69.436 128.727 69.716L125.003 71.144C124.593 70.752 124.201 70.332 123.827 69.884C123.473 69.436 123.174 68.932 122.931 68.372C122.707 67.7933 122.595 67.1493 122.595 66.44C122.595 65.5813 122.763 64.7973 123.099 64.088C123.435 63.3787 123.883 62.772 124.443 62.268C125.003 61.7453 125.629 61.344 126.319 61.064C127.01 60.784 127.701 60.644 128.391 60.644C129.511 60.644 130.482 60.9053 131.303 61.428C132.125 61.9507 132.759 62.632 133.207 63.472C133.674 64.312 133.907 65.2267 133.907 66.216C133.907 67.1307 133.739 67.952 133.403 68.68C133.067 69.3893 132.61 70.024 132.031 70.584C131.471 71.1253 130.846 71.6013 130.155 72.012C129.483 72.4227 128.802 72.768 128.111 73.048C127.775 73.1973 127.355 73.3373 126.851 73.468C126.347 73.5987 125.778 73.72 125.143 73.832C124.509 73.9253 123.827 74 123.099 74.056C122.371 74.112 121.597 74.14 120.775 74.14ZM135.559 74.14C134.477 74.14 133.413 74.084 132.367 73.972C131.322 73.86 130.351 73.692 129.455 73.468C128.578 73.244 127.813 72.9733 127.159 72.656L129.091 69.632C129.651 69.7813 130.305 69.9027 131.051 69.996C131.817 70.0707 132.61 70.1267 133.431 70.164C134.271 70.2013 135.074 70.22 135.839 70.22C136.549 70.22 137.053 70.4067 137.351 70.78C137.669 71.1347 137.827 71.5827 137.827 72.124C137.827 72.7027 137.631 73.188 137.239 73.58C136.847 73.9533 136.287 74.14 135.559 74.14ZM130.855 58.096C130.314 58.096 129.847 57.9093 129.455 57.536C129.082 57.144 128.895 56.6867 128.895 56.164C128.895 55.6227 129.082 55.156 129.455 54.764C129.847 54.372 130.314 54.176 130.855 54.176C131.378 54.176 131.826 54.372 132.199 54.764C132.573 55.156 132.759 55.6227 132.759 56.164C132.759 56.6867 132.573 57.144 132.199 57.536C131.826 57.9093 131.378 58.096 130.855 58.096ZM126.011 58.068C125.47 58.068 125.003 57.8813 124.611 57.508C124.238 57.116 124.051 56.6587 124.051 56.136C124.051 55.5947 124.238 55.128 124.611 54.736C125.003 54.344 125.47 54.148 126.011 54.148C126.534 54.148 126.982 54.344 127.355 54.736C127.729 55.128 127.915 55.5947 127.915 56.136C127.915 56.6587 127.729 57.116 127.355 57.508C126.982 57.8813 126.534 58.068 126.011 58.068ZM135.596 74.14L135.876 70.22C136.734 70.22 137.35 70.136 137.724 69.968C138.097 69.7813 138.321 69.4453 138.396 68.96C138.47 68.456 138.489 67.728 138.452 66.776L137.948 53.504H141.896L142.456 67.056C142.493 68.1387 142.446 69.1187 142.316 69.996C142.204 70.8547 141.914 71.592 141.448 72.208C141 72.824 140.3 73.3 139.348 73.636C138.414 73.972 137.164 74.14 135.596 74.14ZM146.148 74L145.56 53.504H149.48L150.068 74H146.148ZM153.16 80.44L152.348 76.52C153.674 76.352 154.831 76.1467 155.82 75.904C156.81 75.68 157.64 75.3627 158.312 74.952C158.984 74.5413 159.488 73.9813 159.824 73.272C160.16 72.544 160.328 71.6107 160.328 70.472C160.328 70.0613 160.291 69.6507 160.216 69.24C160.142 68.8107 160.03 68.4187 159.88 68.064C159.731 67.7093 159.535 67.42 159.292 67.196C159.068 66.972 158.798 66.86 158.48 66.86C158.144 66.86 157.846 66.9813 157.584 67.224C157.323 67.448 157.118 67.7373 156.968 68.092C156.819 68.428 156.744 68.7733 156.744 69.128C156.744 69.3893 156.81 69.6133 156.94 69.8C157.071 69.968 157.267 70.0987 157.528 70.192C157.79 70.2667 158.116 70.304 158.508 70.304C158.956 70.304 159.414 70.2573 159.88 70.164C160.366 70.052 160.804 69.9027 161.196 69.716L161.308 72.768C160.86 73.1227 160.347 73.44 159.768 73.72C159.19 73.9813 158.49 74.112 157.668 74.112C156.996 74.112 156.371 74.0373 155.792 73.888C155.214 73.72 154.7 73.468 154.252 73.132C153.823 72.796 153.487 72.3667 153.244 71.844C153.002 71.3027 152.88 70.6587 152.88 69.912C152.88 68.9973 153.03 68.1107 153.328 67.252C153.627 66.3933 154.038 65.628 154.56 64.956C155.102 64.2653 155.718 63.724 156.408 63.332C157.118 62.9213 157.864 62.716 158.648 62.716C159.582 62.716 160.394 62.9493 161.084 63.416C161.794 63.8827 162.382 64.4987 162.848 65.264C163.315 66.0107 163.67 66.8227 163.912 67.7C164.155 68.5773 164.276 69.4173 164.276 70.22C164.276 72.3293 163.828 74.1213 162.932 75.596C162.036 77.0707 160.758 78.2093 159.096 79.012C157.435 79.8333 155.456 80.3093 153.16 80.44ZM186.656 74.14C185.331 74.14 184.183 73.972 183.212 73.636C182.26 73.2813 181.523 72.7213 181 71.956C180.477 71.172 180.179 70.1267 180.104 68.82L179.6 57.536H183.548L184.024 67.448C184.061 68.2133 184.183 68.8013 184.388 69.212C184.612 69.604 184.929 69.8747 185.34 70.024C185.751 70.1547 186.283 70.22 186.936 70.22C187.645 70.22 188.149 70.4067 188.448 70.78C188.747 71.1347 188.896 71.5827 188.896 72.124C188.896 72.7027 188.7 73.188 188.308 73.58C187.935 73.9533 187.384 74.14 186.656 74.14ZM181.532 71.536C180.281 71.816 179.077 71.9467 177.92 71.928C176.763 71.8907 175.727 71.6853 174.812 71.312C173.897 70.92 173.169 70.36 172.628 69.632C172.105 68.904 171.844 67.98 171.844 66.86C171.844 65.8707 172.059 64.9747 172.488 64.172C172.936 63.3507 173.552 62.632 174.336 62.016C175.139 61.4 176.072 60.8773 177.136 60.448C178.2 60.0187 179.357 59.692 180.608 59.468L181 63.444C180.197 63.4813 179.469 63.5933 178.816 63.78C178.181 63.948 177.631 64.172 177.164 64.452C176.716 64.732 176.371 65.0493 176.128 65.404C175.885 65.74 175.764 66.104 175.764 66.496C175.764 66.8133 175.876 67.0747 176.1 67.28C176.324 67.4853 176.623 67.6533 176.996 67.784C177.369 67.896 177.799 67.9613 178.284 67.98C178.769 67.9987 179.264 67.9707 179.768 67.896C180.291 67.8213 180.804 67.7 181.308 67.532L181.532 71.536ZM181.616 54.652C181.075 54.652 180.608 54.4653 180.216 54.092C179.843 53.7 179.656 53.2427 179.656 52.72C179.656 52.1787 179.843 51.712 180.216 51.32C180.608 50.928 181.075 50.732 181.616 50.732C182.139 50.732 182.587 50.928 182.96 51.32C183.333 51.712 183.52 52.1787 183.52 52.72C183.52 53.2427 183.333 53.7 182.96 54.092C182.587 54.4653 182.139 54.652 181.616 54.652ZM176.772 54.624C176.231 54.624 175.764 54.4373 175.372 54.064C174.999 53.672 174.812 53.2147 174.812 52.692C174.812 52.1507 174.999 51.684 175.372 51.292C175.764 50.9 176.231 50.704 176.772 50.704C177.295 50.704 177.743 50.9 178.116 51.292C178.489 51.684 178.676 52.1507 178.676 52.692C178.676 53.2147 178.489 53.672 178.116 54.064C177.743 54.4373 177.295 54.624 176.772 54.624ZM186.646 74.14L186.926 70.22C187.542 70.22 188.046 70.1733 188.438 70.08C188.83 69.968 189.148 69.7347 189.39 69.38C189.652 69.0067 189.876 68.456 190.062 67.728C190.268 66.9813 190.492 65.9733 190.734 64.704L194.374 65.376C194.318 65.656 194.253 65.9827 194.178 66.356C194.104 66.7293 194.038 67.112 193.982 67.504C193.926 67.8773 193.898 68.2133 193.898 68.512C193.898 69.0347 194.066 69.4547 194.402 69.772C194.738 70.0707 195.373 70.22 196.306 70.22C196.773 70.22 197.174 70.1733 197.51 70.08C197.865 69.968 198.164 69.7347 198.406 69.38C198.668 69.0067 198.892 68.4373 199.078 67.672C199.284 66.888 199.48 65.8333 199.666 64.508L203.362 65.096C203.288 65.5253 203.213 65.9827 203.138 66.468C203.064 66.9533 202.998 67.4013 202.942 67.812C202.886 68.2227 202.858 68.5587 202.858 68.82C202.858 69.0627 202.924 69.296 203.054 69.52C203.204 69.7253 203.465 69.8933 203.838 70.024C204.23 70.1547 204.781 70.22 205.49 70.22C205.994 70.22 206.424 70.1547 206.778 70.024C207.152 69.8933 207.432 69.6787 207.618 69.38C207.824 69.0813 207.926 68.6893 207.926 68.204C207.926 67.5133 207.768 66.608 207.45 65.488C207.133 64.368 206.76 63.192 206.33 61.96L210.278 60.784C210.577 61.5867 210.838 62.4453 211.062 63.36C211.305 64.256 211.492 65.1333 211.622 65.992C211.772 66.832 211.846 67.5693 211.846 68.204C211.846 69.156 211.697 70.0053 211.398 70.752C211.1 71.48 210.68 72.096 210.138 72.6C209.597 73.104 208.953 73.4867 208.206 73.748C207.46 74.0093 206.638 74.14 205.742 74.14C204.66 74.14 203.773 74.0373 203.082 73.832C202.392 73.608 201.86 73.244 201.486 72.74C201.132 72.2173 200.898 71.508 200.786 70.612H201.738C201.346 71.7133 200.908 72.516 200.422 73.02C199.937 73.5053 199.358 73.8133 198.686 73.944C198.033 74.0747 197.212 74.14 196.222 74.14C195.606 74.14 194.972 74.0747 194.318 73.944C193.684 73.7947 193.114 73.4587 192.61 72.936C192.106 72.4133 191.733 71.6013 191.49 70.5L193.002 70.444C192.61 71.5453 192.097 72.3573 191.462 72.88C190.846 73.4027 190.137 73.748 189.334 73.916C188.532 74.0653 187.636 74.14 186.646 74.14ZM219.356 70.22C220.196 70.22 220.84 70.1453 221.288 69.996C221.736 69.8467 222.044 69.6507 222.212 69.408C222.38 69.1653 222.464 68.904 222.464 68.624C222.464 68.176 222.333 67.6533 222.072 67.056C221.829 66.4587 221.521 65.8333 221.148 65.18C220.775 64.5267 220.383 63.9013 219.972 63.304C219.58 62.7067 219.225 62.184 218.908 61.736L222.24 59.524C223.043 60.6067 223.733 61.68 224.312 62.744C224.891 63.7893 225.357 64.76 225.712 65.656C226.085 66.552 226.347 67.3173 226.496 67.952C226.645 68.5493 226.869 69.016 227.168 69.352C227.485 69.6693 227.849 69.8933 228.26 70.024C228.671 70.1547 229.081 70.22 229.492 70.22C230.201 70.22 230.705 70.4067 231.004 70.78C231.321 71.1347 231.48 71.5827 231.48 72.124C231.48 72.7027 231.284 73.188 230.892 73.58C230.519 73.9533 229.959 74.14 229.212 74.14C228.391 74.14 227.672 74.028 227.056 73.804C226.44 73.58 225.917 73.2253 225.488 72.74C225.059 72.2547 224.695 71.6387 224.396 70.892L226.104 71.256C225.955 71.7787 225.609 72.264 225.068 72.712C224.545 73.1413 223.845 73.496 222.968 73.776C222.109 74.0373 221.092 74.168 219.916 74.168C219.356 74.168 218.731 74.1213 218.04 74.028C217.368 73.9347 216.696 73.7947 216.024 73.608C215.371 73.4213 214.773 73.1787 214.232 72.88L215.604 69.324C216.295 69.6227 216.957 69.8467 217.592 69.996C218.245 70.1453 218.833 70.22 219.356 70.22ZM229.248 74.14L229.528 70.22C230.237 70.22 230.797 70.1547 231.208 70.024C231.637 69.8933 231.973 69.632 232.216 69.24C232.477 68.8293 232.692 68.232 232.86 67.448C233.047 66.664 233.233 65.6187 233.42 64.312L237.088 64.928C237.051 65.208 236.995 65.5347 236.92 65.908C236.864 66.2813 236.808 66.664 236.752 67.056C236.715 67.4293 236.696 67.784 236.696 68.12C236.696 68.568 236.789 68.9507 236.976 69.268C237.181 69.5667 237.536 69.8 238.04 69.968C238.563 70.136 239.309 70.22 240.28 70.22C240.989 70.22 241.493 70.4067 241.792 70.78C242.091 71.1347 242.24 71.5827 242.24 72.124C242.24 72.7027 242.044 73.188 241.652 73.58C241.279 73.9533 240.728 74.14 240 74.14C238.712 74.14 237.667 74.0187 236.864 73.776C236.061 73.5333 235.464 73.1227 235.072 72.544C234.68 71.9653 234.428 71.172 234.316 70.164H235.66C235.324 71.06 234.932 71.7787 234.484 72.32C234.036 72.8427 233.532 73.2347 232.972 73.496C232.412 73.7573 231.815 73.9253 231.18 74C230.564 74.0933 229.92 74.14 229.248 74.14ZM234.96 61.456C234.381 61.456 233.887 61.26 233.476 60.868C233.084 60.476 232.888 59.9907 232.888 59.412C232.888 58.8333 233.084 58.3387 233.476 57.928C233.887 57.5173 234.381 57.312 234.96 57.312C235.52 57.312 235.996 57.5173 236.388 57.928C236.799 58.3387 237.004 58.8333 237.004 59.412C237.004 59.9907 236.799 60.476 236.388 60.868C235.996 61.26 235.52 61.456 234.96 61.456ZM249.402 80.16C248.077 80.16 246.854 79.8707 245.734 79.292C244.614 78.732 243.718 77.8453 243.046 76.632C242.374 75.4373 242.038 73.8973 242.038 72.012C242.038 70.3507 242.234 68.8293 242.626 67.448C243.018 66.048 243.55 64.844 244.222 63.836C244.913 62.8093 245.687 62.016 246.546 61.456C247.405 60.896 248.31 60.616 249.262 60.616C249.971 60.616 250.643 60.8213 251.278 61.232C251.913 61.624 252.435 62.2027 252.846 62.968C253.257 63.7333 253.462 64.6667 253.462 65.768C253.462 66.3653 253.341 67.0373 253.098 67.784C252.855 68.5307 252.426 69.24 251.81 69.912C251.213 70.5653 250.373 71.088 249.29 71.48L249.962 69.268C250.559 69.492 251.203 69.6787 251.894 69.828C252.585 69.9587 253.303 70.0613 254.05 70.136C254.797 70.192 255.525 70.22 256.234 70.22C256.943 70.22 257.447 70.4067 257.746 70.78C258.063 71.1347 258.222 71.5827 258.222 72.124C258.222 72.7027 258.026 73.188 257.634 73.58C257.242 73.9533 256.682 74.14 255.954 74.14C255.431 74.14 254.834 74.112 254.162 74.056C253.509 74 252.865 73.9253 252.23 73.832C251.614 73.7387 251.091 73.636 250.662 73.524L253.714 72.824C254.143 73.3467 254.433 73.9253 254.582 74.56C254.75 75.2133 254.769 75.8667 254.638 76.52C254.526 77.1733 254.255 77.7707 253.826 78.312C253.415 78.872 252.837 79.32 252.09 79.656C251.362 79.992 250.466 80.16 249.402 80.16ZM239.994 74.14L240.274 70.22C240.591 70.22 241.011 70.22 241.534 70.22C242.075 70.22 242.551 70.22 242.962 70.22L243.27 73.776C242.729 73.888 242.141 73.972 241.506 74.028C240.89 74.1027 240.386 74.14 239.994 74.14ZM249.29 76.296C249.663 76.296 249.971 76.2307 250.214 76.1C250.457 75.988 250.634 75.82 250.746 75.596C250.877 75.3907 250.942 75.1573 250.942 74.896C250.942 74.672 250.867 74.42 250.718 74.14C250.569 73.86 250.289 73.6173 249.878 73.412C249.467 73.188 248.879 73.076 248.114 73.076C247.834 73.076 247.526 73.0947 247.19 73.132C246.873 73.1693 246.527 73.2253 246.154 73.3C245.781 73.356 245.398 73.4307 245.006 73.524L245.146 70.164C245.855 70.108 246.49 69.996 247.05 69.828C247.61 69.6413 248.077 69.3987 248.45 69.1C248.842 68.7827 249.141 68.4 249.346 67.952C249.551 67.504 249.654 66.9813 249.654 66.384C249.654 66.0853 249.626 65.796 249.57 65.516C249.514 65.2173 249.43 64.9747 249.318 64.788C249.206 64.5827 249.066 64.48 248.898 64.48C248.599 64.48 248.282 64.648 247.946 64.984C247.61 65.32 247.293 65.8053 246.994 66.44C246.695 67.056 246.443 67.8027 246.238 68.68C246.051 69.5387 245.958 70.5 245.958 71.564C245.958 72.46 246.051 73.216 246.238 73.832C246.425 74.4293 246.677 74.9053 246.994 75.26C247.311 75.6333 247.666 75.8947 248.058 76.044C248.469 76.212 248.879 76.296 249.29 76.296ZM255.99 74.14L256.27 70.22C257.129 70.22 257.745 70.136 258.118 69.968C258.492 69.7813 258.716 69.4453 258.79 68.96C258.865 68.456 258.884 67.728 258.846 66.776L258.342 53.504H262.29L262.85 67.056C262.888 68.1387 262.841 69.1187 262.71 69.996C262.598 70.8547 262.309 71.592 261.842 72.208C261.394 72.824 260.694 73.3 259.742 73.636C258.809 73.972 257.558 74.14 255.99 74.14ZM266.543 74L265.955 53.504H269.875L270.463 74H266.543Z" fill="black"/>
</g>
<defs>
<filter id="filter0_d_20_200" x="0" y="4.4574" width="333" height="126.58" filterUnits="userSpaceOnUse" color-interpolation-filters="sRGB">
<feFlood flood-opacity="0" result="BackgroundImageFix"/>
<feColorMatrix in="SourceAlpha" type="matrix" values="0 0 0 0 0 0 0 0 0 0 0 0 0 0 0 0 0 0 127 0" result="hardAlpha"/>
<feOffset dy="4"/>
<feGaussianBlur stdDeviation="2"/>
<feComposite in2="hardAlpha" operator="out"/>
<feColorMatrix type="matrix" values="0 0 0 0 0 0 0 0 0 0 0 0 0 0 0 0 0 0 0.25 0"/>
<feBlend mode="normal" in2="BackgroundImageFix" result="effect1_dropShadow_20_200"/>
<feBlend mode="normal" in="SourceGraphic" in2="effect1_dropShadow_20_200" result="shape"/>
</filter>
</defs>
</svg>
