<svg width="347" height="635" viewBox="0 0 347 635" fill="none" xmlns="http://www.w3.org/2000/svg">
<g filter="url(#filter0_d_20_133)">
<rect x="4" y="63" width="339" height="497" rx="25" fill="#D9D9D9"/>
<path d="M170.697 602.037L147.18 561.867C145.142 558.71 144.552 555.44 145.41 552.056C146.268 548.673 148.373 545.966 151.726 543.935C155.079 541.905 266.764 474.273 266.764 474.273C270.117 472.242 273.682 471.706 277.46 472.664C281.238 473.622 284.118 475.792 286.098 479.175L308.379 517.233C310.194 520.334 310.587 523.914 309.558 527.974C308.529 532.034 306.477 534.995 303.403 536.856L188.366 606.519C185.013 608.55 181.67 609.142 178.336 608.297C175.002 607.452 172.456 605.364 170.697 602.037ZM183.255 584.698L240.87 549.808L225.521 523.591L167.906 558.481L183.255 584.698Z" fill="#C00005"/>
<path d="M118.437 83.1265C116.392 77.5786 116.624 72.0984 119.132 66.686C121.64 61.2737 125.678 57.5412 131.246 55.4888L267.65 5.20392C273.892 2.9027 279.263 4.21678 283.764 9.14616C288.264 14.0755 289.073 19.6495 286.191 25.868L278.986 41.4142L264.453 34.741L260.13 44.0687L274.664 50.7419L255.931 91.1621L241.398 84.4889L237.075 93.8167L251.609 100.49L232.716 141.256L218.183 134.582L213.86 143.91L228.393 150.583L209.661 191.003L195.128 184.33L190.805 193.658L205.338 200.331L198.134 215.877C194.932 222.787 189.618 226.178 182.193 226.051C174.768 225.923 169.816 222.497 167.337 215.773L118.437 83.1265ZM138.683 75.6631L181.726 192.422L255.854 32.4685L138.683 75.6631Z" fill="#E45600"/>
<path d="M144.522 333.367L107.081 310.671L117.309 293.749C118.965 291.009 121.408 289.242 124.639 288.448C127.869 287.654 130.854 288.086 133.591 289.746L150.742 300.142C153.479 301.801 155.246 304.248 156.041 307.483C156.836 310.718 156.406 313.705 154.75 316.445L144.522 333.367ZM44.929 455.824L37.4845 425.547L65.8301 378.649L12.3989 346.095L37.7269 303.643L91.5935 336.296L107.081 310.671L144.522 333.367L129.034 358.992L182.901 391.644L157.236 433.561L103.659 401.249L75.1669 448.389L44.929 455.824ZM72.1129 368.254L85.263 346.497L67.6295 335.808L60.6162 347.412L50.4709 341.262L57.4843 329.658L42.0248 320.287L28.8747 342.044L72.1129 368.254ZM152.84 417.353L165.99 395.596L150.53 386.225L143.517 397.829L133.372 391.679L140.385 380.076L122.752 369.387L109.602 391.143L152.84 417.353ZM53.6957 441.319L67.264 437.983L127.9 337.66L110.992 327.41L50.3552 427.733L53.6957 441.319Z" fill="#4D5D09"/>
<path d="M103.765 297.28C101.114 297.28 98.8182 296.944 96.8769 296.272C94.9729 295.563 93.4982 294.443 92.4529 292.912C91.4076 291.344 90.8102 289.253 90.6609 286.64L89.6529 264.072H97.5489L98.5009 283.896C98.5756 285.427 98.8182 286.603 99.2289 287.424C99.6769 288.208 100.312 288.749 101.133 289.048C101.954 289.309 103.018 289.44 104.325 289.44C105.744 289.44 106.752 289.813 107.349 290.56C107.946 291.269 108.245 292.165 108.245 293.248C108.245 294.405 107.853 295.376 107.069 296.16C106.322 296.907 105.221 297.28 103.765 297.28ZM93.5169 292.072C91.0156 292.632 88.6076 292.893 86.2929 292.856C83.9782 292.781 81.9062 292.371 80.0769 291.624C78.2476 290.84 76.7916 289.72 75.7089 288.264C74.6636 286.808 74.1409 284.96 74.1409 282.72C74.1409 280.741 74.5702 278.949 75.4289 277.344C76.3249 275.701 77.5569 274.264 79.1249 273.032C80.7302 271.8 82.5969 270.755 84.7249 269.896C86.8529 269.037 89.1676 268.384 91.6689 267.936L92.4529 275.888C90.8476 275.963 89.3916 276.187 88.0849 276.56C86.8156 276.896 85.7142 277.344 84.7809 277.904C83.8849 278.464 83.1942 279.099 82.7089 279.808C82.2236 280.48 81.9809 281.208 81.9809 281.992C81.9809 282.627 82.2049 283.149 82.6529 283.56C83.1009 283.971 83.6982 284.307 84.4449 284.568C85.1916 284.792 86.0502 284.923 87.0209 284.96C87.9916 284.997 88.9809 284.941 89.9889 284.792C91.0342 284.643 92.0609 284.4 93.0689 284.064L93.5169 292.072ZM93.6849 258.304C92.6022 258.304 91.6689 257.931 90.8849 257.184C90.1382 256.4 89.7649 255.485 89.7649 254.44C89.7649 253.357 90.1382 252.424 90.8849 251.64C91.6689 250.856 92.6022 250.464 93.6849 250.464C94.7302 250.464 95.6262 250.856 96.3729 251.64C97.1196 252.424 97.4929 253.357 97.4929 254.44C97.4929 255.485 97.1196 256.4 96.3729 257.184C95.6262 257.931 94.7302 258.304 93.6849 258.304ZM83.9969 258.248C82.9142 258.248 81.9809 257.875 81.1969 257.128C80.4502 256.344 80.0769 255.429 80.0769 254.384C80.0769 253.301 80.4502 252.368 81.1969 251.584C81.9809 250.8 82.9142 250.408 83.9969 250.408C85.0422 250.408 85.9382 250.8 86.6849 251.584C87.4316 252.368 87.8049 253.301 87.8049 254.384C87.8049 255.429 87.4316 256.344 86.6849 257.128C85.9382 257.875 85.0422 258.248 83.9969 258.248ZM103.746 297.28L104.306 289.44C105.538 289.44 106.546 289.347 107.33 289.16C108.114 288.936 108.749 288.469 109.234 287.76C109.757 287.013 110.205 285.912 110.578 284.456C110.989 282.963 111.437 280.947 111.922 278.408L119.202 279.752C119.09 280.312 118.959 280.965 118.81 281.712C118.661 282.459 118.53 283.224 118.418 284.008C118.306 284.755 118.25 285.427 118.25 286.024C118.25 287.069 118.586 287.909 119.258 288.544C119.93 289.141 121.199 289.44 123.066 289.44C123.999 289.44 124.802 289.347 125.474 289.16C126.183 288.936 126.781 288.469 127.266 287.76C127.789 287.013 128.237 285.875 128.61 284.344C129.021 282.776 129.413 280.667 129.786 278.016L137.178 279.192C137.029 280.051 136.879 280.965 136.73 281.936C136.581 282.907 136.45 283.803 136.338 284.624C136.226 285.445 136.17 286.117 136.17 286.64C136.17 287.125 136.301 287.592 136.562 288.04C136.861 288.451 137.383 288.787 138.13 289.048C138.914 289.309 140.015 289.44 141.434 289.44C142.442 289.44 143.301 289.309 144.01 289.048C144.757 288.787 145.317 288.357 145.69 287.76C146.101 287.163 146.306 286.379 146.306 285.408C146.306 284.027 145.989 282.216 145.354 279.976C144.719 277.736 143.973 275.384 143.114 272.92L151.01 270.568C151.607 272.173 152.13 273.891 152.578 275.72C153.063 277.512 153.437 279.267 153.698 280.984C153.997 282.664 154.146 284.139 154.146 285.408C154.146 287.312 153.847 289.011 153.25 290.504C152.653 291.96 151.813 293.192 150.73 294.2C149.647 295.208 148.359 295.973 146.866 296.496C145.373 297.019 143.73 297.28 141.938 297.28C139.773 297.28 137.999 297.075 136.618 296.664C135.237 296.216 134.173 295.488 133.426 294.48C132.717 293.435 132.25 292.016 132.026 290.224H133.93C133.146 292.427 132.269 294.032 131.298 295.04C130.327 296.011 129.17 296.627 127.826 296.888C126.519 297.149 124.877 297.28 122.898 297.28C121.666 297.28 120.397 297.149 119.09 296.888C117.821 296.589 116.682 295.917 115.674 294.872C114.666 293.827 113.919 292.203 113.434 290L116.458 289.888C115.674 292.091 114.647 293.715 113.378 294.76C112.146 295.805 110.727 296.496 109.122 296.832C107.517 297.131 105.725 297.28 103.746 297.28ZM169.165 289.44C170.845 289.44 172.133 289.291 173.029 288.992C173.925 288.693 174.541 288.301 174.877 287.816C175.213 287.331 175.381 286.808 175.381 286.248C175.381 285.352 175.12 284.307 174.597 283.112C174.112 281.917 173.496 280.667 172.749 279.36C172.002 278.053 171.218 276.803 170.397 275.608C169.613 274.413 168.904 273.368 168.269 272.472L174.933 268.048C176.538 270.213 177.92 272.36 179.077 274.488C180.234 276.579 181.168 278.52 181.877 280.312C182.624 282.104 183.146 283.635 183.445 284.904C183.744 286.099 184.192 287.032 184.789 287.704C185.424 288.339 186.152 288.787 186.973 289.048C187.794 289.309 188.616 289.44 189.437 289.44C190.856 289.44 191.864 289.813 192.461 290.56C193.096 291.269 193.413 292.165 193.413 293.248C193.413 294.405 193.021 295.376 192.237 296.16C191.49 296.907 190.37 297.28 188.877 297.28C187.234 297.28 185.797 297.056 184.565 296.608C183.333 296.16 182.288 295.451 181.429 294.48C180.57 293.509 179.842 292.277 179.245 290.784L182.661 291.512C182.362 292.557 181.672 293.528 180.589 294.424C179.544 295.283 178.144 295.992 176.389 296.552C174.672 297.075 172.637 297.336 170.285 297.336C169.165 297.336 167.914 297.243 166.533 297.056C165.189 296.869 163.845 296.589 162.501 296.216C161.194 295.843 160 295.357 158.917 294.76L161.661 287.648C163.042 288.245 164.368 288.693 165.637 288.992C166.944 289.291 168.12 289.44 169.165 289.44ZM188.949 297.28L189.509 289.44C190.928 289.44 192.048 289.309 192.869 289.048C193.728 288.787 194.4 288.264 194.885 287.48C195.408 286.659 195.837 285.464 196.173 283.896C196.547 282.328 196.92 280.237 197.293 277.624L204.629 278.856C204.555 279.416 204.443 280.069 204.293 280.816C204.181 281.563 204.069 282.328 203.957 283.112C203.883 283.859 203.845 284.568 203.845 285.24C203.845 286.136 204.032 286.901 204.405 287.536C204.816 288.133 205.525 288.6 206.533 288.936C207.579 289.272 209.072 289.44 211.013 289.44C212.432 289.44 213.44 289.813 214.037 290.56C214.635 291.269 214.933 292.165 214.933 293.248C214.933 294.405 214.541 295.376 213.757 296.16C213.011 296.907 211.909 297.28 210.453 297.28C207.877 297.28 205.787 297.037 204.181 296.552C202.576 296.067 201.381 295.245 200.597 294.088C199.813 292.931 199.309 291.344 199.085 289.328H201.773C201.101 291.12 200.317 292.557 199.421 293.64C198.525 294.685 197.517 295.469 196.397 295.992C195.277 296.515 194.083 296.851 192.813 297C191.581 297.187 190.293 297.28 188.949 297.28ZM200.373 271.912C199.216 271.912 198.227 271.52 197.405 270.736C196.621 269.952 196.229 268.981 196.229 267.824C196.229 266.667 196.621 265.677 197.405 264.856C198.227 264.035 199.216 263.624 200.373 263.624C201.493 263.624 202.445 264.035 203.229 264.856C204.051 265.677 204.461 266.667 204.461 267.824C204.461 268.981 204.051 269.952 203.229 270.736C202.445 271.52 201.493 271.912 200.373 271.912ZM229.257 309.32C226.607 309.32 224.161 308.741 221.921 307.584C219.681 306.464 217.889 304.691 216.545 302.264C215.201 299.875 214.529 296.795 214.529 293.024C214.529 289.701 214.921 286.659 215.705 283.896C216.489 281.096 217.553 278.688 218.897 276.672C220.279 274.619 221.828 273.032 223.545 271.912C225.263 270.792 227.073 270.232 228.977 270.232C230.396 270.232 231.74 270.643 233.009 271.464C234.279 272.248 235.324 273.405 236.145 274.936C236.967 276.467 237.377 278.333 237.377 280.536C237.377 281.731 237.135 283.075 236.649 284.568C236.164 286.061 235.305 287.48 234.073 288.824C232.879 290.131 231.199 291.176 229.033 291.96L230.377 287.536C231.572 287.984 232.86 288.357 234.241 288.656C235.623 288.917 237.06 289.123 238.553 289.272C240.047 289.384 241.503 289.44 242.921 289.44C244.34 289.44 245.348 289.813 245.945 290.56C246.58 291.269 246.897 292.165 246.897 293.248C246.897 294.405 246.505 295.376 245.721 296.16C244.937 296.907 243.817 297.28 242.361 297.28C241.316 297.28 240.121 297.224 238.777 297.112C237.471 297 236.183 296.851 234.913 296.664C233.681 296.477 232.636 296.272 231.777 296.048L237.881 294.648C238.74 295.693 239.319 296.851 239.617 298.12C239.953 299.427 239.991 300.733 239.729 302.04C239.505 303.347 238.964 304.541 238.105 305.624C237.284 306.744 236.127 307.64 234.633 308.312C233.177 308.984 231.385 309.32 229.257 309.32ZM210.441 297.28L211.001 289.44C211.636 289.44 212.476 289.44 213.521 289.44C214.604 289.44 215.556 289.44 216.377 289.44L216.993 296.552C215.911 296.776 214.735 296.944 213.465 297.056C212.233 297.205 211.225 297.28 210.441 297.28ZM229.033 301.592C229.78 301.592 230.396 301.461 230.881 301.2C231.367 300.976 231.721 300.64 231.945 300.192C232.207 299.781 232.337 299.315 232.337 298.792C232.337 298.344 232.188 297.84 231.889 297.28C231.591 296.72 231.031 296.235 230.209 295.824C229.388 295.376 228.212 295.152 226.681 295.152C226.121 295.152 225.505 295.189 224.833 295.264C224.199 295.339 223.508 295.451 222.761 295.6C222.015 295.712 221.249 295.861 220.465 296.048L220.745 289.328C222.164 289.216 223.433 288.992 224.553 288.656C225.673 288.283 226.607 287.797 227.353 287.2C228.137 286.565 228.735 285.8 229.145 284.904C229.556 284.008 229.761 282.963 229.761 281.768C229.761 281.171 229.705 280.592 229.593 280.032C229.481 279.435 229.313 278.949 229.089 278.576C228.865 278.165 228.585 277.96 228.249 277.96C227.652 277.96 227.017 278.296 226.345 278.968C225.673 279.64 225.039 280.611 224.441 281.88C223.844 283.112 223.34 284.605 222.929 286.36C222.556 288.077 222.369 290 222.369 292.128C222.369 293.92 222.556 295.432 222.929 296.664C223.303 297.859 223.807 298.811 224.441 299.52C225.076 300.267 225.785 300.789 226.569 301.088C227.391 301.424 228.212 301.592 229.033 301.592ZM242.434 297.28L242.994 289.44C244.711 289.44 245.943 289.272 246.69 288.936C247.436 288.563 247.884 287.891 248.034 286.92C248.183 285.912 248.22 284.456 248.146 282.552L247.138 256.008H255.034L256.154 283.112C256.228 285.277 256.135 287.237 255.874 288.992C255.65 290.709 255.071 292.184 254.138 293.416C253.242 294.648 251.842 295.6 249.938 296.272C248.071 296.944 245.57 297.28 242.434 297.28ZM263.539 297L262.363 256.008H270.203L271.379 297H263.539ZM89.2393 377.992C86.5513 377.992 84.1246 377.675 81.9593 377.04C79.7939 376.443 77.9273 375.528 76.3593 374.296C74.7913 373.064 73.5779 371.533 72.7193 369.704C71.8979 367.912 71.4873 365.821 71.4873 363.432C71.4873 362.573 71.5619 361.565 71.7113 360.408C71.8606 359.251 72.1406 357.944 72.5513 356.488C72.9619 354.995 73.5779 353.333 74.3993 351.504L81.2873 353.912C80.8766 355.069 80.5219 356.133 80.2233 357.104C79.9246 358.037 79.7006 358.915 79.5513 359.736C79.4019 360.52 79.3273 361.304 79.3273 362.088C79.3273 363.544 79.6633 364.888 80.3353 366.12C81.0073 367.352 82.0899 368.323 83.5833 369.032C85.0766 369.779 87.0366 370.152 89.4633 370.152C91.7033 370.152 93.5699 369.891 95.0633 369.368C96.5566 368.883 97.7326 368.192 98.5913 367.296C99.4499 366.437 100.066 365.429 100.439 364.272C100.813 363.115 100.999 361.864 100.999 360.52C100.999 359.475 100.869 358.299 100.607 356.992C100.383 355.685 100.047 354.267 99.5992 352.736C99.1513 351.168 98.6473 349.525 98.0873 347.808L105.927 345.792C106.301 347.211 106.599 348.424 106.823 349.432C107.085 350.44 107.309 351.28 107.495 351.952C107.682 352.587 107.831 353.109 107.943 353.52C108.317 354.64 108.765 355.499 109.287 356.096C109.847 356.656 110.463 357.029 111.135 357.216C111.845 357.403 112.629 357.496 113.487 357.496C114.197 357.496 114.85 357.384 115.447 357.16C116.045 356.936 116.586 356.469 117.071 355.76C117.594 355.013 118.061 353.875 118.471 352.344C118.882 350.813 119.255 348.704 119.591 346.016L126.983 347.192C126.834 348.051 126.685 348.965 126.535 349.936C126.386 350.907 126.255 351.821 126.143 352.68C126.031 353.501 125.975 354.173 125.975 354.696C125.975 355.181 126.106 355.629 126.367 356.04C126.666 356.451 127.189 356.787 127.935 357.048C128.682 357.309 129.746 357.44 131.127 357.44C132.135 357.44 133.013 357.347 133.759 357.16C134.506 356.936 135.085 356.544 135.495 355.984C135.906 355.387 136.111 354.547 136.111 353.464C136.111 352.531 135.962 351.411 135.663 350.104C135.365 348.76 134.973 347.304 134.487 345.736C134.039 344.168 133.517 342.563 132.919 340.92L140.815 338.568C141.413 340.173 141.935 341.891 142.383 343.72C142.869 345.512 143.242 347.267 143.503 348.984C143.802 350.664 143.951 352.139 143.951 353.408C143.951 355.387 143.653 357.123 143.055 358.616C142.495 360.109 141.655 361.36 140.535 362.368C139.453 363.339 138.127 364.067 136.559 364.552C134.991 365.037 133.237 365.28 131.295 365.28C129.877 365.28 128.57 365.131 127.375 364.832C126.218 364.496 125.21 364.029 124.351 363.432C123.53 362.835 122.895 362.107 122.447 361.248C121.999 360.352 121.794 359.344 121.831 358.224H123.735C123.175 360.277 122.41 361.808 121.439 362.816C120.469 363.824 119.386 364.496 118.191 364.832C116.997 365.131 115.783 365.28 114.551 365.28C113.581 365.28 112.647 365.187 111.751 365C110.855 364.813 110.034 364.515 109.287 364.104C108.578 363.656 107.962 363.077 107.439 362.368C106.917 361.621 106.562 360.725 106.375 359.68L108.447 361.92C108.373 364.459 107.869 366.717 106.935 368.696C106.002 370.675 104.695 372.355 103.015 373.736C101.373 375.117 99.3753 376.163 97.0233 376.872C94.7086 377.619 92.1139 377.992 89.2393 377.992ZM164.51 365.28C161.038 365.28 158.35 364.925 156.446 364.216C154.579 363.507 153.272 362.405 152.526 360.912C151.779 359.381 151.35 357.459 151.238 355.144L150.062 324.008H157.902L159.078 351.392C159.152 353.109 159.339 354.397 159.638 355.256C159.936 356.115 160.496 356.693 161.318 356.992C162.176 357.291 163.427 357.44 165.07 357.44C166.488 357.44 167.496 357.813 168.094 358.56C168.728 359.269 169.046 360.165 169.046 361.248C169.046 362.405 168.654 363.376 167.87 364.16C167.086 364.907 165.966 365.28 164.51 365.28ZM164.586 365.28L165.146 357.44C166.49 357.44 167.647 357.309 168.618 357.048C169.589 356.787 170.41 356.264 171.082 355.48C171.754 354.659 172.314 353.464 172.762 351.896C173.247 350.328 173.677 348.237 174.05 345.624L181.386 346.856C181.311 347.416 181.199 348.069 181.05 348.816C180.938 349.563 180.826 350.328 180.714 351.112C180.639 351.859 180.602 352.568 180.602 353.24C180.602 353.912 180.733 354.509 180.994 355.032C181.255 355.555 181.666 356.003 182.226 356.376C182.823 356.712 183.589 356.973 184.522 357.16C185.493 357.347 186.669 357.44 188.05 357.44C189.469 357.44 190.477 357.813 191.074 358.56C191.671 359.269 191.97 360.165 191.97 361.248C191.97 362.405 191.578 363.376 190.794 364.16C190.047 364.907 188.946 365.28 187.49 365.28C185.81 365.28 184.279 365.149 182.898 364.888C181.554 364.627 180.378 364.197 179.37 363.6C178.399 362.965 177.597 362.144 176.962 361.136C176.365 360.091 175.991 358.821 175.842 357.328H178.53C177.858 359.12 176.999 360.557 175.954 361.64C174.946 362.685 173.807 363.469 172.538 363.992C171.269 364.515 169.943 364.851 168.562 365C167.218 365.187 165.893 365.28 164.586 365.28ZM180.21 378.272C179.127 378.272 178.194 377.88 177.41 377.096C176.663 376.349 176.29 375.453 176.29 374.408C176.29 373.325 176.663 372.392 177.41 371.608C178.194 370.824 179.127 370.432 180.21 370.432C181.255 370.432 182.151 370.824 182.898 371.608C183.645 372.392 184.018 373.325 184.018 374.408C184.018 375.453 183.645 376.349 182.898 377.096C182.151 377.88 181.255 378.272 180.21 378.272ZM170.522 378.272C169.439 378.272 168.506 377.88 167.722 377.096C166.975 376.349 166.602 375.453 166.602 374.408C166.602 373.325 166.975 372.392 167.722 371.608C168.506 370.824 169.439 370.432 170.522 370.432C171.567 370.432 172.463 370.824 173.21 371.608C173.957 372.392 174.33 373.325 174.33 374.408C174.33 375.453 173.957 376.349 173.21 377.096C172.463 377.88 171.567 378.272 170.522 378.272ZM187.5 365.28L188.06 357.496C189.516 357.533 190.86 357.515 192.092 357.44C193.324 357.365 194.425 357.253 195.396 357.104C196.404 356.955 197.281 356.787 198.028 356.6C198.812 356.413 199.465 356.245 199.988 356.096C201.257 355.685 202.34 355.2 203.236 354.64C204.132 354.043 204.823 353.371 205.308 352.624C205.793 351.877 206.036 351.075 206.036 350.216C206.036 349.544 205.887 348.872 205.588 348.2C205.327 347.491 204.935 346.912 204.412 346.464C203.889 346.016 203.273 345.792 202.564 345.792C201.892 345.792 201.276 345.997 200.716 346.408C200.156 346.819 199.708 347.379 199.372 348.088C199.036 348.76 198.868 349.544 198.868 350.44C198.868 351.224 199.055 351.971 199.428 352.68C199.801 353.352 200.324 354.005 200.996 354.64C201.668 355.275 202.471 355.872 203.404 356.432L195.956 359.288C195.135 358.504 194.351 357.664 193.604 356.768C192.895 355.872 192.297 354.864 191.812 353.744C191.364 352.587 191.14 351.299 191.14 349.88C191.14 348.163 191.476 346.595 192.148 345.176C192.82 343.757 193.716 342.544 194.836 341.536C195.956 340.491 197.207 339.688 198.588 339.128C199.969 338.568 201.351 338.288 202.732 338.288C204.972 338.288 206.913 338.811 208.556 339.856C210.199 340.901 211.468 342.264 212.364 343.944C213.297 345.624 213.764 347.453 213.764 349.432C213.764 351.261 213.428 352.904 212.756 354.36C212.084 355.779 211.169 357.048 210.012 358.168C208.892 359.251 207.641 360.203 206.26 361.024C204.916 361.845 203.553 362.536 202.172 363.096C201.5 363.395 200.66 363.675 199.652 363.936C198.644 364.197 197.505 364.44 196.236 364.664C194.967 364.851 193.604 365 192.148 365.112C190.692 365.224 189.143 365.28 187.5 365.28ZM217.068 365.28C214.903 365.28 212.775 365.168 210.684 364.944C208.593 364.72 206.652 364.384 204.86 363.936C203.105 363.488 201.575 362.947 200.268 362.312L204.132 356.264C205.252 356.563 206.559 356.805 208.052 356.992C209.583 357.141 211.169 357.253 212.812 357.328C214.492 357.403 216.097 357.44 217.628 357.44C219.047 357.44 220.055 357.813 220.652 358.56C221.287 359.269 221.604 360.165 221.604 361.248C221.604 362.405 221.212 363.376 220.428 364.16C219.644 364.907 218.524 365.28 217.068 365.28ZM207.66 333.192C206.577 333.192 205.644 332.819 204.86 332.072C204.113 331.288 203.74 330.373 203.74 329.328C203.74 328.245 204.113 327.312 204.86 326.528C205.644 325.744 206.577 325.352 207.66 325.352C208.705 325.352 209.601 325.744 210.348 326.528C211.095 327.312 211.468 328.245 211.468 329.328C211.468 330.373 211.095 331.288 210.348 332.072C209.601 332.819 208.705 333.192 207.66 333.192ZM197.972 333.136C196.889 333.136 195.956 332.763 195.172 332.016C194.425 331.232 194.052 330.317 194.052 329.272C194.052 328.189 194.425 327.256 195.172 326.472C195.956 325.688 196.889 325.296 197.972 325.296C199.017 325.296 199.913 325.688 200.66 326.472C201.407 327.256 201.78 328.189 201.78 329.272C201.78 330.317 201.407 331.232 200.66 332.016C199.913 332.763 199.017 333.136 197.972 333.136ZM217.141 365.28L217.701 357.44C219.418 357.44 220.65 357.272 221.397 356.936C222.143 356.563 222.591 355.891 222.741 354.92C222.89 353.912 222.927 352.456 222.853 350.552L221.845 324.008H229.741L230.861 351.112C230.935 353.277 230.842 355.237 230.581 356.992C230.357 358.709 229.778 360.184 228.845 361.416C227.949 362.648 226.549 363.6 224.645 364.272C222.778 364.944 220.277 365.28 217.141 365.28ZM238.246 365L237.07 324.008H244.91L246.086 365H238.246ZM252.27 377.88L250.646 370.04C253.297 369.704 255.611 369.293 257.59 368.808C259.569 368.36 261.23 367.725 262.574 366.904C263.918 366.083 264.926 364.963 265.598 363.544C266.27 362.088 266.606 360.221 266.606 357.944C266.606 357.123 266.531 356.301 266.382 355.48C266.233 354.621 266.009 353.837 265.71 353.128C265.411 352.419 265.019 351.84 264.534 351.392C264.086 350.944 263.545 350.72 262.91 350.72C262.238 350.72 261.641 350.963 261.118 351.448C260.595 351.896 260.185 352.475 259.886 353.184C259.587 353.856 259.438 354.547 259.438 355.256C259.438 355.779 259.569 356.227 259.83 356.6C260.091 356.936 260.483 357.197 261.006 357.384C261.529 357.533 262.182 357.608 262.966 357.608C263.862 357.608 264.777 357.515 265.71 357.328C266.681 357.104 267.558 356.805 268.342 356.432L268.566 362.536C267.67 363.245 266.643 363.88 265.486 364.44C264.329 364.963 262.929 365.224 261.286 365.224C259.942 365.224 258.691 365.075 257.534 364.776C256.377 364.44 255.35 363.936 254.454 363.264C253.595 362.592 252.923 361.733 252.438 360.688C251.953 359.605 251.71 358.317 251.71 356.824C251.71 354.995 252.009 353.221 252.606 351.504C253.203 349.787 254.025 348.256 255.07 346.912C256.153 345.531 257.385 344.448 258.766 343.664C260.185 342.843 261.678 342.432 263.246 342.432C265.113 342.432 266.737 342.899 268.118 343.832C269.537 344.765 270.713 345.997 271.646 347.528C272.579 349.021 273.289 350.645 273.774 352.4C274.259 354.155 274.502 355.835 274.502 357.44C274.502 361.659 273.606 365.243 271.814 368.192C270.022 371.141 267.465 373.419 264.142 375.024C260.819 376.667 256.862 377.619 252.27 377.88Z" fill="black"/>
</g>
<defs>
<filter id="filter0_d_20_133" x="0" y="4.10535" width="347" height="612.564" filterUnits="userSpaceOnUse" color-interpolation-filters="sRGB">
<feFlood flood-opacity="0" result="BackgroundImageFix"/>
<feColorMatrix in="SourceAlpha" type="matrix" values="0 0 0 0 0 0 0 0 0 0 0 0 0 0 0 0 0 0 127 0" result="hardAlpha"/>
<feOffset dy="4"/>
<feGaussianBlur stdDeviation="2"/>
<feComposite in2="hardAlpha" operator="out"/>
<feColorMatrix type="matrix" values="0 0 0 0 0 0 0 0 0 0 0 0 0 0 0 0 0 0 0.25 0"/>
<feBlend mode="normal" in2="BackgroundImageFix" result="effect1_dropShadow_20_133"/>
<feBlend mode="normal" in="SourceGraphic" in2="effect1_dropShadow_20_133" result="shape"/>
</filter>
</defs>
</svg>
