<svg width="201" height="49" viewBox="0 0 201 49" fill="none" xmlns="http://www.w3.org/2000/svg">
<path d="M0.04 28.88C0.04 28.2667 0.0933334 27.5467 0.2 26.72C0.306667 25.8933 0.506667 24.96 0.8 23.92C1.09333 22.8533 1.53333 21.6667 2.12 20.36L7.04 22.08C6.74667 22.9067 6.49333 23.6667 6.28 24.36C6.06667 25.0267 5.90667 25.6533 5.8 26.24C5.69333 26.8 5.64 27.36 5.64 27.92C5.64 28.8 5.82667 29.5867 6.2 30.28C6.6 31 7.17333 31.6 7.92 32.08C8.66667 32.5867 9.57333 32.9733 10.64 33.24C11.7333 33.5067 12.9867 33.64 14.4 33.64C15.8667 33.64 17.1733 33.5733 18.32 33.44C19.4933 33.3067 20.48 33.1067 21.28 32.84C22.1067 32.5733 22.7333 32.2267 23.16 31.8C23.5867 31.4 23.8 30.9333 23.8 30.4C23.8 30.16 23.7067 29.9333 23.52 29.72C23.36 29.5067 23.08 29.28 22.68 29.04C22.3067 28.8 21.8 28.5467 21.16 28.28C20.5467 28.0133 19.8 27.72 18.92 27.4L20.24 21.76C21.3867 22.24 22.4667 22.6667 23.48 23.04C24.52 23.3867 25.5067 23.68 26.44 23.92C27.3733 24.1333 28.2533 24.3067 29.08 24.44C29.9067 24.5467 30.68 24.6 31.4 24.6C32.4133 24.6 33.1333 24.8667 33.56 25.4C33.9867 25.9067 34.2 26.5467 34.2 27.32C34.2 28.1467 33.92 28.84 33.36 29.4C32.8 29.9333 32.0133 30.2 31 30.2C30.7867 30.2 30.5733 30.2 30.36 30.2C30.1733 30.2 29.9733 30.2 29.76 30.2C29.5733 30.2 29.3733 30.2 29.16 30.2C29.2133 30.4667 29.24 30.6933 29.24 30.88C29.24 31.0933 29.24 31.2933 29.24 31.48C29.24 32.36 28.9333 33.2533 28.32 34.16C27.7333 35.0667 26.8133 35.9067 25.56 36.68C24.3067 37.4533 22.7067 38.0667 20.76 38.52C18.84 39 16.5467 39.24 13.88 39.24C11 39.24 8.52 38.8667 6.44 38.12C4.38667 37.4 2.8 36.2667 1.68 34.72C0.586667 33.2 0.04 31.2533 0.04 28.88ZM17.8 48.52C17.0267 48.52 16.36 48.24 15.8 47.68C15.2667 47.1467 15 46.5067 15 45.76C15 44.9867 15.2667 44.32 15.8 43.76C16.36 43.2 17.0267 42.92 17.8 42.92C18.5467 42.92 19.1867 43.2 19.72 43.76C20.2533 44.32 20.52 44.9867 20.52 45.76C20.52 46.5067 20.2533 47.1467 19.72 47.68C19.1867 48.24 18.5467 48.52 17.8 48.52ZM10.88 48.52C10.1067 48.52 9.44 48.24 8.88 47.68C8.34667 47.1467 8.08 46.5067 8.08 45.76C8.08 44.9867 8.34667 44.32 8.88 43.76C9.44 43.2 10.1067 42.92 10.88 42.92C11.6267 42.92 12.2667 43.2 12.8 43.76C13.3333 44.32 13.6 44.9867 13.6 45.76C13.6 46.5067 13.3333 47.1467 12.8 47.68C12.2667 48.24 11.6267 48.52 10.88 48.52ZM97.5938 30.2L97.9938 24.6H109.514C110.527 24.6 111.247 24.8667 111.674 25.4C112.127 25.9067 112.354 26.5467 112.354 27.32C112.354 28.1467 112.074 28.84 111.514 29.4C110.954 29.9333 110.154 30.2 109.114 30.2H97.5938ZM129.876 30.72C127.396 30.72 125.33 30.6133 123.676 30.4C122.05 30.1867 120.73 29.88 119.716 29.48C118.703 29.08 117.903 28.6 117.316 28.04C116.73 27.48 116.25 26.8667 115.876 26.2L116.996 25.88C116.33 27.16 115.57 28.1067 114.716 28.72C113.863 29.3333 112.97 29.7333 112.036 29.92C111.103 30.1067 110.143 30.2 109.156 30.2L109.556 24.6C110.383 24.6 111.036 24.4667 111.516 24.2C111.996 23.9333 112.383 23.4933 112.676 22.88C112.996 22.2667 113.29 21.4533 113.556 20.44C113.823 19.4267 114.143 18.1867 114.516 16.72L119.596 17.96C119.41 18.68 119.25 19.3067 119.116 19.84C119.01 20.3733 118.916 20.84 118.836 21.24C118.783 21.6133 118.756 21.92 118.756 22.16C118.756 22.6667 118.876 23.12 119.116 23.52C119.356 23.8933 119.823 24.2 120.516 24.44C121.21 24.6533 122.223 24.8267 123.556 24.96C124.916 25.0667 126.69 25.12 128.876 25.12C131.196 25.12 133.13 25.04 134.676 24.88C136.223 24.6933 137.45 24.44 138.356 24.12C139.29 23.7733 139.956 23.36 140.356 22.88C140.756 22.3733 140.956 21.8 140.956 21.16C140.956 20.6533 140.836 20.1867 140.596 19.76C140.383 19.3067 140.023 18.9333 139.516 18.64C139.01 18.3467 138.356 18.2 137.556 18.2C136.596 18.2 135.623 18.44 134.636 18.92C133.676 19.3733 132.73 19.9867 131.796 20.76C130.863 21.5067 129.97 22.3467 129.116 23.28C128.29 24.2133 127.543 25.1467 126.876 26.08L120.876 25.4C121.916 23.72 123.09 22.1067 124.396 20.56C125.703 19.0133 127.103 17.6533 128.596 16.48C130.09 15.28 131.636 14.3333 133.236 13.64C134.836 12.9467 136.463 12.6 138.116 12.6C139.903 12.6 141.423 12.9467 142.676 13.64C143.93 14.3333 144.89 15.2933 145.556 16.52C146.223 17.7467 146.556 19.16 146.556 20.76C146.556 22.7067 145.996 24.4267 144.876 25.92C143.783 27.4133 142.01 28.5867 139.556 29.44C137.13 30.2933 133.903 30.72 129.876 30.72ZM136.956 8.88C136.13 8.88 135.423 8.6 134.836 8.04C134.276 7.48 133.996 6.78667 133.996 5.96C133.996 5.13333 134.276 4.42667 134.836 3.84C135.423 3.25333 136.13 2.96 136.956 2.96C137.756 2.96 138.436 3.25333 138.996 3.84C139.583 4.42667 139.876 5.13333 139.876 5.96C139.876 6.78667 139.583 7.48 138.996 8.04C138.436 8.6 137.756 8.88 136.956 8.88Z" fill="#07B4A9"/>
<path d="M30.9922 30.2L31.3922 24.6H42.9122C43.9255 24.6 44.6455 24.8667 45.0722 25.4C45.5255 25.9067 45.7522 26.5467 45.7522 27.32C45.7522 28.1467 45.4722 28.84 44.9122 29.4C44.3522 29.9333 43.5522 30.2 42.5122 30.2H30.9922ZM42.5547 30.2L42.9547 24.6C44.5547 24.6 45.7814 24.52 46.6347 24.36C47.488 24.2 48.0747 23.9067 48.3947 23.48C48.7414 23.0267 48.9147 22.3867 48.9147 21.56C48.9147 20.8133 48.808 19.92 48.5947 18.88C48.408 17.84 48.1547 16.76 47.8347 15.64C47.5414 14.52 47.2214 13.4933 46.8747 12.56L52.3947 11.04C52.7414 11.9467 53.0747 13 53.3947 14.2C53.7147 15.4 53.9814 16.64 54.1947 17.92C54.408 19.1733 54.5147 20.3867 54.5147 21.56C54.5147 23.3733 54.2214 24.8533 53.6347 26C53.048 27.12 52.2214 27.9867 51.1547 28.6C50.1147 29.2133 48.8614 29.64 47.3947 29.88C45.928 30.0933 44.3147 30.2 42.5547 30.2ZM53.3947 7.8C52.6214 7.8 51.9547 7.53333 51.3947 7C50.8614 6.44 50.5947 5.78667 50.5947 5.04C50.5947 4.26666 50.8614 3.6 51.3947 3.04C51.9547 2.48 52.6214 2.2 53.3947 2.2C54.1414 2.2 54.7814 2.48 55.3147 3.04C55.848 3.6 56.1147 4.26666 56.1147 5.04C56.1147 5.78667 55.848 6.44 55.3147 7C54.7814 7.53333 54.1414 7.8 53.3947 7.8ZM46.4747 7.76C45.7014 7.76 45.0347 7.49333 44.4747 6.96C43.9414 6.4 43.6747 5.74667 43.6747 5C43.6747 4.22667 43.9414 3.56 44.4747 3C45.0347 2.44 45.7014 2.16 46.4747 2.16C47.2214 2.16 47.8614 2.44 48.3947 3C48.928 3.56 49.1947 4.22667 49.1947 5C49.1947 5.74667 48.928 6.4 48.3947 6.96C47.8614 7.49333 47.2214 7.76 46.4747 7.76ZM160.782 30.2C158.302 30.2 156.382 29.9467 155.022 29.44C153.688 28.9333 152.755 28.1467 152.222 27.08C151.688 25.9867 151.382 24.6133 151.302 22.96L150.462 0.719998H156.062L156.902 20.28C156.955 21.5067 157.088 22.4267 157.302 23.04C157.515 23.6533 157.915 24.0667 158.502 24.28C159.115 24.4933 160.008 24.6 161.182 24.6C162.195 24.6 162.915 24.8667 163.342 25.4C163.795 25.9067 164.022 26.5467 164.022 27.32C164.022 28.1467 163.742 28.84 163.182 29.4C162.622 29.9333 161.822 30.2 160.782 30.2Z" fill="#4D5D09"/>
<path d="M69.6097 30.2C67.1297 30.2 65.2097 29.9467 63.8497 29.44C62.5164 28.9333 61.583 28.1467 61.0497 27.08C60.5164 25.9867 60.2097 24.6133 60.1297 22.96L59.2897 0.719998H64.8897L65.7297 20.28C65.783 21.5067 65.9164 22.4267 66.1297 23.04C66.343 23.6533 66.743 24.0667 67.3297 24.28C67.943 24.4933 68.8364 24.6 70.0097 24.6C71.023 24.6 71.743 24.8667 72.1697 25.4C72.623 25.9067 72.8497 26.5467 72.8497 27.32C72.8497 28.1467 72.5697 28.84 72.0097 29.4C71.4497 29.9333 70.6497 30.2 69.6097 30.2ZM160.836 30.2L161.236 24.6H172.756C173.769 24.6 174.489 24.8667 174.916 25.4C175.369 25.9067 175.596 26.5467 175.596 27.32C175.596 28.1467 175.316 28.84 174.756 29.4C174.196 29.9333 173.396 30.2 172.356 30.2H160.836ZM172.398 30.2L172.798 24.6C174.398 24.6 175.625 24.52 176.478 24.36C177.332 24.2 177.918 23.9067 178.238 23.48C178.585 23.0267 178.758 22.3867 178.758 21.56C178.758 20.8133 178.652 19.92 178.438 18.88C178.252 17.84 177.998 16.76 177.678 15.64C177.385 14.52 177.065 13.4933 176.718 12.56L182.238 11.04C182.585 11.9467 182.918 13 183.238 14.2C183.558 15.4 183.825 16.64 184.038 17.92C184.252 19.1733 184.358 20.3867 184.358 21.56C184.358 23.3733 184.065 24.8533 183.478 26C182.892 27.12 182.065 27.9867 180.998 28.6C179.958 29.2133 178.705 29.64 177.238 29.88C175.772 30.0933 174.158 30.2 172.398 30.2ZM182.278 39.48C181.505 39.48 180.838 39.2 180.278 38.64C179.745 38.1067 179.478 37.4667 179.478 36.72C179.478 35.9467 179.745 35.28 180.278 34.72C180.838 34.16 181.505 33.88 182.278 33.88C183.025 33.88 183.665 34.16 184.198 34.72C184.732 35.28 184.998 35.9467 184.998 36.72C184.998 37.4667 184.732 38.1067 184.198 38.64C183.665 39.2 183.025 39.48 182.278 39.48ZM175.358 39.48C174.585 39.48 173.918 39.2 173.358 38.64C172.825 38.1067 172.558 37.4667 172.558 36.72C172.558 35.9467 172.825 35.28 173.358 34.72C173.918 34.16 174.585 33.88 175.358 33.88C176.105 33.88 176.745 34.16 177.278 34.72C177.812 35.28 178.078 35.9467 178.078 36.72C178.078 37.4667 177.812 38.1067 177.278 38.64C176.745 39.2 176.105 39.48 175.358 39.48Z" fill="#C00005"/>
<path d="M69.6641 30.2L70.0641 24.6H81.5841C82.5974 24.6 83.3174 24.8667 83.7441 25.4C84.1974 25.9067 84.4241 26.5467 84.4241 27.32C84.4241 28.1467 84.1441 28.84 83.5841 29.4C83.0241 29.9333 82.2241 30.2 81.1841 30.2H69.6641ZM81.2266 30.2L81.6266 24.6C82.5866 24.6 83.4132 24.5067 84.1066 24.32C84.7999 24.1333 85.3866 23.76 85.8666 23.2C86.3466 22.6133 86.7466 21.76 87.0666 20.64C87.4132 19.52 87.7199 18.0267 87.9866 16.16L93.2266 17.04C93.1732 17.44 93.0932 17.9067 92.9866 18.44C92.9066 18.9733 92.8266 19.52 92.7466 20.08C92.6932 20.6133 92.6666 21.12 92.6666 21.6C92.6666 22.08 92.7599 22.5067 92.9466 22.88C93.1332 23.2533 93.4266 23.5733 93.8266 23.84C94.2532 24.08 94.7999 24.2667 95.4666 24.4C96.1599 24.5333 96.9999 24.6 97.9866 24.6C98.9999 24.6 99.7199 24.8667 100.147 25.4C100.573 25.9067 100.787 26.5467 100.787 27.32C100.787 28.1467 100.507 28.84 99.9466 29.4C99.4132 29.9333 98.6266 30.2 97.5866 30.2C96.3866 30.2 95.2932 30.1067 94.3066 29.92C93.3466 29.7333 92.5066 29.4267 91.7866 29C91.0932 28.5467 90.5199 27.96 90.0666 27.24C89.6399 26.4933 89.3732 25.5867 89.2666 24.52H91.1866C90.7066 25.8 90.0932 26.8267 89.3466 27.6C88.6266 28.3467 87.8132 28.9067 86.9066 29.28C85.9999 29.6533 85.0532 29.8933 84.0666 30C83.1066 30.1333 82.1599 30.2 81.2266 30.2ZM92.3866 39.48C91.6132 39.48 90.9466 39.2 90.3866 38.64C89.8532 38.1067 89.5866 37.4667 89.5866 36.72C89.5866 35.9467 89.8532 35.28 90.3866 34.72C90.9466 34.16 91.6132 33.88 92.3866 33.88C93.1332 33.88 93.7732 34.16 94.3066 34.72C94.8399 35.28 95.1066 35.9467 95.1066 36.72C95.1066 37.4667 94.8399 38.1067 94.3066 38.64C93.7732 39.2 93.1332 39.48 92.3866 39.48ZM85.4666 39.48C84.6932 39.48 84.0266 39.2 83.4666 38.64C82.9332 38.1067 82.6666 37.4667 82.6666 36.72C82.6666 35.9467 82.9332 35.28 83.4666 34.72C84.0266 34.16 84.6932 33.88 85.4666 33.88C86.2132 33.88 86.8532 34.16 87.3866 34.72C87.9199 35.28 88.1866 35.9467 88.1866 36.72C88.1866 37.4667 87.9199 38.1067 87.3866 38.64C86.8532 39.2 86.2132 39.48 85.4666 39.48ZM187.413 39.2L185.373 34.08C187.667 33.28 189.52 32.4 190.933 31.44C192.373 30.48 193.427 29.4533 194.093 28.36C194.787 27.2667 195.133 26.1333 195.133 24.96C195.133 24.2133 195.027 23.44 194.813 22.64C194.6 21.8133 194.293 20.9467 193.893 20.04C193.52 19.1333 193.067 18.1867 192.533 17.2L197.773 14.68C198.707 16.4667 199.427 18.1733 199.933 19.8C200.467 21.4267 200.733 22.9467 200.733 24.36C200.733 25.6667 200.56 26.92 200.213 28.12C199.893 29.32 199.387 30.44 198.693 31.48C198.027 32.5467 197.16 33.5467 196.093 34.48C195.027 35.4133 193.773 36.2667 192.333 37.04C190.893 37.84 189.253 38.56 187.413 39.2Z" fill="#E45600"/>
</svg>
