<svg width="200" height="200" viewBox="0 0 200 200" fill="none" xmlns="http://www.w3.org/2000/svg">
<path d="M75.75 142.5L142.5 100L75.75 57.5V142.5ZM100 200C86.3333 200 73.4167 197.375 61.25 192.125C49.0833 186.875 38.4583 179.708 29.375 170.625C20.2917 161.542 13.125 150.917 7.875 138.75C2.625 126.583 0 113.667 0 100C0 86.1667 2.625 73.1667 7.875 61C13.125 48.8333 20.2917 38.25 29.375 29.25C38.4583 20.25 49.0833 13.125 61.25 7.875C73.4167 2.625 86.3333 0 100 0C113.833 0 126.833 2.625 139 7.875C151.167 13.125 161.75 20.25 170.75 29.25C179.75 38.25 186.875 48.8333 192.125 61C197.375 73.1667 200 86.1667 200 100C200 113.667 197.375 126.583 192.125 138.75C186.875 150.917 179.75 161.542 170.75 170.625C161.75 179.708 151.167 186.875 139 192.125C126.833 197.375 113.833 200 100 200ZM100 185C123.667 185 143.75 176.708 160.25 160.125C176.75 143.542 185 123.5 185 100C185 76.3333 176.75 56.25 160.25 39.75C143.75 23.25 123.667 15 100 15C76.5 15 56.4583 23.25 39.875 39.75C23.2917 56.25 15 76.3333 15 100C15 123.5 23.2917 143.542 39.875 160.125C56.4583 176.708 76.5 185 100 185Z" fill="#C00005"/>
</svg>
